<?xml version="1.0" encoding="UTF-8"?><svg xmlns="http://www.w3.org/2000/svg" viewBox="0 0 680.73 413.7"><defs><style>.d{fill:#deb1b5;opacity:.13;}</style></defs><g id="a"/><g id="b"><g id="c"><path class="d" d="M671.07,240.34c-32.94,6.37-66.13,11.33-99.46,14.89,6.58-3.88,12.54-8.8,15.86-15.89,2.26-4.83-.34-11.55-6.48-11.29-.33,.01-.66,.04-.98,.05,4.18-4.82,.18-14.38-7.58-12.24-22.57,6.5-45.45,11.83-68.55,15.93,14.04-3.97,27.88-8.68,41.41-14.37l.11-.03h0c.6-.26,1.2-.5,1.8-.76,2.8-1.2,3.88-3.58,3.77-6.04,8.81-3.82,17.56-7.79,26.21-11.96,6.61-3.18,3.69-12.05-2.16-13.67,3.37-1.43,6.74-2.85,10.1-4.3,3.41-1.48,4.37-6.29,3.07-9.37-.06-.15-.15-.27-.22-.42,3.49-2.22,6.97-4.45,10.44-6.7,7.11-4.62,2.64-15.69-5.78-13.71-36.98,8.7-73.67,18.47-110.15,28.99,1.89-1.27,3.73-2.62,5.48-4.05,17.26-7.37,34.39-15.03,51.39-22.95,26.67-12.42,53.04-25.48,79.19-38.96,7.66-3.95,2.31-15.86-5.78-13.71-9.75,2.6-19.5,5.24-29.23,7.91,16.89-9.64,32.8-20.95,46.01-34.91,5.27-5.57-.02-14.13-7.3-12.54-79.07,17.37-156.65,40.4-233.5,65.71,5.5-2.82,10.98-5.67,16.42-8.58,21.27-11.37,42.16-23.44,62.65-36.16,6.97-4.33,2.57-16.48-5.78-13.71-8.55,2.83-17.06,5.75-25.56,8.7,1.36-1.39,2.68-2.82,3.93-4.32,4.9-5.87,.25-13.92-7.3-12.54-21.81,3.99-43.48,8.72-64.96,14.12,8.69-4.68,17.35-9.42,25.97-14.25,22.07-12.38,43.86-25.24,65.37-38.56,8.19-5.07,.86-17.73-7.57-12.95-20.02,11.35-40.06,22.71-60.01,34.22-1.86-1.78-4.6-2.78-7.07-1.82-3.51,1.36-7.02,2.73-10.53,4.09,1.36-5.21-3.25-11.38-9.1-9.41-25.73,8.66-51.32,17.72-76.76,27.15-30.13,7.37-60.17,15.13-90.09,23.33,26.54-11.26,52.72-23.23,77.26-38.53,15.77-9.83,30.7-21.07,44.2-33.87,5.34-5.06-.15-14.86-7.3-12.54-59.27,19.27-115.82,46.52-167.72,81.03-4.17,2.77-4.34,7.77-2.02,10.97-.84,.36-1.68,.71-2.51,1.07-16.74,7.22-33.31,14.85-49.39,23.45-7.46,3.99-2.37,16.23,5.78,13.71,25.1-7.77,50.29-15.23,75.56-22.41-2.33,.99-4.67,1.98-6.99,2.97-18.54,7.93-36.98,16.08-55.33,24.42-8.02,3.65-2.15,15.52,5.78,13.71,4.54-1.04,9.08-2.11,13.61-3.21-12.28,5.73-24.5,11.57-36.66,17.55-7.72,3.8-2.28,15.96,5.78,13.71,13.81-3.85,27.56-7.95,41.23-12.27,0,1.34,.32,2.71,.92,3.93-9.15,5.1-18.3,10.2-27.45,15.31-22.33,12.45-44.66,24.91-66.99,37.36-3.03,1.69-3.93,4.89-3.36,7.82-12.48,3.83-24.97,7.65-37.45,11.48-9.2,2.82-5.34,17.13,3.99,14.46,17.32-4.95,34.65-9.9,51.97-14.91,.49-.06,1-.18,1.52-.37,.39-.14,.79-.28,1.18-.41,7.5-2.17,14.99-4.35,22.49-6.54-12.97,4.71-25.55,10.36-37.2,17.74-3.04,1.93-4.05,5.06-3.45,8.47,2.63,14.83,25.15,11.65,35.69,11.8,6.1,.09,12.2,.14,18.3,.17-7.44,3.06-14.85,6.17-22.24,9.35-7.88,3.39-2.24,16.04,5.78,13.71,1.48-.43,2.96-.86,4.43-1.29,1.57,1.2,3.7,1.75,6.23,1.11,30.8-7.81,61.64-15.63,92.27-24.18,6.5-.23,13-.5,19.49-.79-24.92,7.42-50.08,14.03-75.42,19.81-14,2.81-27.98,5.74-41.92,8.81-6.39,1.41-6.62,8.3-3.22,12.1-4.35,1.36-8.7,2.73-13.05,4.07-9.26,2.86-5.44,16.46,3.99,14.46,15.15-3.21,30.28-6.57,45.37-10.06,1.44,3.1,4.67,5.36,8.61,4.13,.77-.24,1.53-.49,2.3-.73,.56,3.98,4.84,7.28,9.5,6.6,1.06,3.23,4.05,5.92,7.82,5.5-.32,4.66,3.33,9.58,9.19,7.88,1.47-.43,2.95-.85,4.42-1.27-1.55,1.67-1.98,3.74-1.59,5.71-.9,.33-1.8,.67-2.71,1-8.96,3.3-5.55,16.7,3.99,14.46,26.62-6.23,53.25-12.46,79.87-18.69,1.47-.34,2.93-.69,4.4-1.03-32.19,10.41-64.94,19.08-98.18,25.63-9.5,1.87-5.43,16.17,3.99,14.46,17-3.08,34.01-6.1,51.03-9.09,.22,1.19,.68,2.3,1.36,3.24-7.25,2.58-14.5,5.18-21.74,7.8-9.05,3.28-5.54,16.43,3.99,14.46,16.06-3.31,32.1-6.71,48.12-10.2-2.27,.91-4.55,1.81-6.82,2.73-8.72,3.54-5.64,16.87,3.99,14.46,21.43-5.36,42.88-10.72,64.27-16.29,30.76-6.81,61.52-13.62,92.28-20.43-17.39,7.31-34.64,14.95-51.73,22.95-2.32,1.09-3.43,3.06-3.62,5.2-1.98,.64-3.96,1.27-5.94,1.91-9.13,2.97-5.26,17.39,3.99,14.46,7.27-2.3,14.54-4.6,21.81-6.93,19.12-5.93,38.36-11.51,57.68-16.73,1.12,3.3,4.27,5.78,8.73,4.5,14.12-4.04,28.24-8.09,42.37-12.13-.15,.52-.25,1.05-.29,1.59-6.84,3.95-.95,14.91,6.63,13.28,12.65-2.73,25.31-5.46,37.96-8.19-4.02,5.13,.71,13.13,7.95,11.78,.82-.15,1.65-.31,2.47-.46,.89,1.31,2.09,2.44,3.58,3.25,5.46,2.95,10.53-1.34,11.21-6,.51-.09,1.01-.19,1.52-.28,5.71-1.06,6.49-6.59,4.22-10.57,3.86-2.42,7.72-4.84,11.58-7.27,7.31-4.59,2.53-15.5-5.78-13.71-.48,.1-.96,.21-1.44,.31,17.33-6.84,34.53-14.01,51.57-21.55,7.22-3.19,3.06-14.01-3.87-13.98,22.09-8.62,43.73-18.42,64.79-29.36,7.55-3.92,2.34-16.13-5.78-13.71-8.99,2.68-17.95,5.41-26.9,8.2,19.65-12.79,38.52-26.75,56.1-42.51,6-5.38-.5-13.85-7.3-12.54ZM180.64,76.51c29.51-17.59,60.32-32.9,92.16-45.78-28.62,18.68-60.37,32.54-92.16,45.78ZM510.11,352.89l-22.65,6.49c-.24-.26-.5-.51-.78-.73,7.1-2.76,14.22-5.47,21.35-8.15,.54,.92,1.25,1.74,2.09,2.39Zm93.38-63.23c-1.16-3.19-4.41-5.58-8.8-4.65-15.57,3.31-31.07,6.89-46.51,10.72,1.86-1.27,3.68-2.6,5.46-3.98,6.77-3.32,13.52-6.68,20.22-10.15,4.56-2.36,4.61-8.39,1.47-11.74,23.81-2.6,47.55-5.9,71.17-9.89-13.78,10.69-28.19,20.49-43,29.7ZM384.33,111.02c.74-.28,1.48-.55,2.21-.83-5.04,2.62-10.09,5.2-15.17,7.74-1.52-.11-3.11,.2-4.59,.85-1.29,.57-2.57,1.13-3.86,1.7,1.7-.85,3.4-1.69,5.09-2.55,1.72-.87,3.44-1.76,5.16-2.63,3.72-1.43,7.43-2.86,11.16-4.27Zm60.82,207.85c11.13-3.03,22.23-6.15,33.3-9.38-.2,.08-.4,.17-.6,.25-9.68,3.08-19.4,6.02-29.15,8.9-.16,.02-.33,.05-.49,.07-.92-.14-1.95-.1-3.07,.16ZM150.94,229.92c20-5.24,40.12-10.02,60.32-14.41-1.93,.97-3.87,1.94-5.8,2.9-8.03,2.16-16.06,4.3-24.1,6.41-13.24,3.49-26.5,6.91-39.76,10.31,3.1-1.76,6.21-3.5,9.34-5.22Zm207.74-30.66c-.05-.08-.1-.16-.14-.24,4.82-1.35,9.64-2.69,14.47-4-4.76,1.45-9.54,2.87-14.33,4.23Zm144.71,56.54c-1.64,.53-3.27,1.07-4.9,1.61-1.21-.39-2.6-.52-4.1-.26-.07,.01-.13,.02-.2,.03,3.33-.73,6.67-1.46,10-2.19-.27,.27-.53,.54-.8,.81Zm-255.39-4.35c4.83-.94,9.65-1.9,14.45-2.91-2.7,.98-5.4,1.97-8.1,2.96-2.73,.19-5.47,.37-8.2,.55,.62-.2,1.24-.39,1.85-.6Zm147.17,40.19c-22.57,5.68-45.26,10.9-68.02,15.8,22.59-5.6,45.27-10.87,68.02-15.8Zm-23.53-138.33c-7.5,1.56-15,3.14-22.5,4.76,.5-.29,1-.57,1.49-.86,7.12-1.73,14.25-3.45,21.39-5.12,2.72-.64,5.44-1.26,8.16-1.89-2.85,1.03-5.69,2.07-8.54,3.12Zm-126.93-1.36c12.75-9,25.66-17.77,38.71-26.34,1.53-.66,3.07-1.32,4.6-1.98-10.82,7.88-21.63,15.75-32.45,23.63-3.62,1.56-7.25,3.11-10.87,4.68Zm-3.81-54.72c-6.76,2.4-13.55,4.74-20.36,7.02,23.39-9.46,46.92-18.59,70.58-27.37-16.78,6.7-33.52,13.46-50.22,20.36ZM71.95,256.1c-.42,0-.84,0-1.26,0,.55-.27,1.11-.54,1.67-.8-.16,.27-.29,.53-.41,.8Zm447.14-110.77c.93-1.3,1.34-2.79,1.32-4.26,6.89-2,13.78-3.98,20.68-5.95-7.31,3.45-14.65,6.85-22,10.21Zm77.43-63.79c-14.39,10.37-30.31,18.83-46.2,26.4,1.03-4.9-3.41-11.02-9.32-9.25-20.6,6.17-41.21,12.35-61.78,18.7-1.71-1.43-4.02-2.22-6.58-1.75-1.46,.27-2.92,.55-4.38,.82,20.64-6.25,41.36-12.27,62.16-17.98,21.93-6.02,43.97-11.68,66.09-16.94Zm-189.13-1.82c-1.84,1.13-3.72,2.23-5.61,3.3-11.12,6.33-22.47,12.28-33.85,18.13-.46,.23-.92,.46-1.37,.7-17.11,6.59-34.15,13.36-51.12,20.29l27.86-20.29c2.47-1.8,3.96-4.41,3.62-7.29,8.25-2.3,16.52-4.51,24.83-6.59,11.83-2.97,23.72-5.71,35.64-8.25Zm59.9,256.53c6.79-2.65,13.57-5.35,20.3-8.15,.48-.2,.92-.43,1.33-.68,21.66-6.43,43.48-12.36,65.42-17.76-5.94,3.3-11.94,6.48-17.99,9.57-1.61-1.21-3.74-1.74-6.17-1.01-14.19,4.26-28.3,8.77-42.34,13.48-6.85,1.52-13.71,3.03-20.56,4.55Z"/></g></g></svg>