<?xml version="1.0" encoding="UTF-8"?><svg xmlns="http://www.w3.org/2000/svg" viewBox="0 0 425.15 65.58"><defs><style>.d{fill:#e78f97;opacity:.44;}.e{stroke:#231815;stroke-miterlimit:10;stroke-width:.5px;}.e,.f{fill:#231815;}</style></defs><g id="a"/><g id="b"><g id="c"><path class="d" d="M372.55,56.77c-.9-2.01-2.17-3.63-3.81-4.86-4.47-4.01-9.71-6.95-14.97-8.88-5.33-1.96-10.78-3.39-16.37-3.28-20.64,.4-41.28-.09-61.9-.96-5.18-.22-10.36-.47-15.55-.73-20.92-1.07-41.84-2.32-62.76-3.31-20.46-.96-40.93-1.64-61.4-1.51-11.56,.07-23.12,.41-34.68,1.08-1.91-.15-3.69,.28-5.35,1.3-1.33,.34-2.27,1.32-2.83,2.95-.28,1.73,.05,3.21,.99,4.43,.9,2.01,2.17,3.63,3.81,4.86,4.47,4.01,9.71,6.95,14.97,8.88,5.27,1.93,10.84,3.6,16.37,3.28,27.01-1.58,54.06-1.27,81.08-.22,6.71,.26,13.42,.57,20.13,.9,16.6,.85,33.2,1.83,49.8,2.67,18.65,.95,37.31,1.8,55.98,2.1,9.77,.16,19.54,.16,29.31-.02,1.91,.15,3.69-.28,5.35-1.3,1.33-.34,2.27-1.32,2.83-2.95,.28-1.73-.05-3.21-.99-4.43Z"/><g><path class="f" d="M399.26,42.21l6.3,18.95c.26,.79,2.18,.26,1.92-.52l-6.3-18.95c-.26-.79-2.18-.26-1.92,.52h0Z"/><path class="f" d="M407.89,41.8c1.6,4.74,3.45,9.39,5.53,13.93,.24,.52,2.11-.11,1.92-.52-2.08-4.55-3.93-9.2-5.53-13.93-.17-.51-2.08,.05-1.92,.52h0Z"/><path class="f" d="M417.06,42.79l6.13,16.27c.31,.83,2.23,.29,1.92-.52l-6.13-16.27c-.31-.83-2.23-.29-1.92,.52h0Z"/></g><g><path class="f" d="M.02,24.11c3.42,13.17,4.93,26.77,4.48,40.37-.03,1.03,5,.3,5.06-1.35,.45-13.6-1.06-27.2-4.48-40.37-.35-1.35-5.41-.03-5.06,1.35H.02Z"/><path class="f" d="M4.13,25.44l7.42-2.66c.25-.09,.65-.15,.86-.31,.41-.1,.35-.15-.18-.13-.32,.04-.59-.05-.81-.28,.11-.04,.26,.69,.29,.83,.23,1.25,.29,2.55,.43,3.81l.85,7.8,.22,2.04c.04,.36-.03,1.45,.17,1.72-.2-.27,2.61-1.1,.92-.93l-.92,.09-2.21,.23c-1.13,.12-2.65,.79-2.77,2.09s1.32,1.84,2.36,1.73c1.78-.18,3.94-.1,5.6-.83,.9-.4,1.64-1.03,1.99-1.97,.31-.82,.12-1.72,.02-2.56l-1.13-10.4c-.31-2.89-.13-7.42-4.28-7.16-1.67,.11-3.4,1-4.96,1.56l-4.83,1.73c-1,.36-2.39,1.18-2.05,2.47,.31,1.17,2.02,1.47,3.01,1.12h0Z"/><path class="f" d="M12.26,22.69l15.32-5.94,7.43-2.88,3.95-1.53,1.86-.72,.93-.36c.5-.2,1.17-.16,.06-.21l-1.06-.31c.1,.06-.39,2.64-.45,3.12-.18,1.37-.34,2.75-.47,4.12-.27,2.75-.46,5.51-.57,8.28-.21,5.51-.08,11.04,.35,16.54l4.02-2.25c-10.24-3.46-21.19-2.06-31.64-.54-1.03,.15-2.66,.68-2.82,1.92s1.39,1.57,2.28,1.44c9.66-1.4,19.73-2.86,29.2,.34,1.47,.5,4.16-.43,4.02-2.25-.72-9.19-.49-18.44,.67-27.58,.2-1.56,1.17-4.33-.22-5.56-1.88-1.67-4.98,.12-6.9,.87l-13.23,5.13-14.86,5.76c-.88,.34-1.93,1.43-1.25,2.38,.72,1.01,2.49,.61,3.4,.25h0Z"/><path class="f" d="M58.14,9.64c6.1-2.75,12.41-4.92,18.91-6.52,.87-.21,2.43-1.05,2.13-2.17s-2.09-1.02-2.93-.82c-6.94,1.7-13.72,4.05-20.23,6.98-.78,.35-2.03,1.37-1.27,2.31s2.48,.62,3.39,.21h0Z"/><path class="f" d="M58.7,21.86c1.07-.07,2.16-.08,3.38-.02s2.39,.18,3.57,.38c2.43,.42,4.82,1.09,7.09,2.05,1.15,.48,2.56,.24,3.59-.43,.65-.42,1.56-1.64,.4-2.13-5.53-2.32-11.42-3.26-17.4-2.88-.97,.06-2.65,.69-2.85,1.8-.22,1.19,1.48,1.27,2.22,1.22h0Z"/><path class="f" d="M56.8,35.01c5.4,3.35,9.89,8.07,12.9,13.67,.76,1.42,5.6-.34,5.06-1.35-3.1-5.77-7.65-10.68-13.22-14.13-.92-.57-2.36-.22-3.29,.16-.3,.12-2.32,1.12-1.45,1.66h0Z"/></g><g><path class="e" d="M130.57,11.23c.16-.08,.71-.11,1.64-.08,2.05,.08,3.48,.34,4.28,.78,.8,.44,1.15,1.17,1.04,2.18-.05,.43-.24,1.09-.56,2-.72,2.08-1.08,3.51-1.08,4.28,0,.4,.11,.77,.34,1.1,.23,.33,.69,.78,1.38,1.34,.69,.56,1.11,.93,1.24,1.12,.77,.99,.69,2.25-.24,3.8-.53,.88-1.41,1.68-2.64,2.4-.72,.43-1.53,1-2.44,1.72l-1.32,1.12v1.04c-.08,4.03-.2,6.57-.36,7.64-.05,.35-.12,.59-.2,.72-.08,.13-.23,.2-.44,.2s-.36-.1-.44-.3c-.08-.2-.15-.61-.2-1.22-.08-.96-.13-5.39-.14-13.28-.01-7.89,.02-11.91,.1-12.04,.16-.24,.39-.32,.68-.24,.29,.08,.52,.29,.68,.64,.11,.19,.17,.62,.2,1.3s.05,2.67,.08,5.98c.03,4.59,.08,6.92,.16,7,.16,.16,1.07-.56,2.72-2.16,.96-.93,1.56-1.6,1.8-2,.24-.4,.25-.76,.04-1.08-.11-.16-.49-.6-1.16-1.32-1.01-1.07-1.65-1.93-1.92-2.6-.21-.59-.31-1.03-.28-1.34,.03-.31,.25-1.1,.68-2.38,.43-1.33,.69-2.21,.78-2.64,.09-.43,.06-.69-.1-.8-.11-.13-.59-.28-1.44-.44-2.27-.45-3.4-1.03-3.4-1.72,0-.13,.05-.28,.16-.44,.11-.16,.23-.25,.36-.28Zm14.68-.96c.19-.05,.52-.04,1,.04,.85,.13,1.51,.47,1.96,1,.43,.51,.88,1.35,1.36,2.52l.24,.56,3,.04c1.63,.03,2.64,.07,3.04,.14,.4,.07,.71,.23,.92,.5,.24,.29,.19,.71-.16,1.24l-.24,.44-4.28-.08c-2.85-.05-4.41-.04-4.68,.04-.59,.19-.99,.6-1.2,1.24-.11,.35-.28,1.76-.52,4.24-.24,2.48-.33,3.75-.28,3.8,.03,.03,.67,.07,1.92,.12,1.17,.05,2.05,.13,2.62,.24,.57,.11,1.21,.31,1.9,.6,1.33,.53,2.42,1.21,3.26,2.04,.84,.83,1.35,1.73,1.54,2.72,.24,1.04,.12,2.17-.36,3.4-.48,1.23-1.23,2.36-2.24,3.4-.88,.88-1.95,1.71-3.22,2.48s-2.25,1.2-2.94,1.28c-.21,.03-.36,.03-.44,0-.08-.03-.19-.12-.32-.28-.19-.21-.27-.53-.24-.96,.03-.35,.07-.57,.14-.66,.07-.09,.25-.15,.54-.18,.59-.11,1.51-.6,2.78-1.48,1.27-.88,2.18-1.65,2.74-2.32,1.36-1.65,1.84-3.15,1.44-4.48-.13-.51-.42-.95-.86-1.32-.44-.37-1.19-.83-2.26-1.36-.88-.45-1.52-.72-1.92-.8-.4-.08-1.07-.11-2-.08-1.04,0-1.72,.08-2.04,.24-.29,.16-.49,.35-.6,.56-.11,.21-.35,1.28-.72,3.2-.91,4.67-1.63,7.28-2.16,7.84-.29,.32-.57,.32-.84,0-.13-.11-.17-.37-.12-.8,.08-.67,.37-2.47,.88-5.4,.51-2.93,.88-4.97,1.12-6.12,.21-1.01,.51-3.24,.88-6.68,.24-2.45,.39-3.8,.44-4.04l.08-.32h-1.16c-1.73,0-2.73-.13-3-.4-.16-.16-.2-.35-.12-.56,.08-.21,.28-.4,.6-.56,.48-.24,1.69-.48,3.64-.72,1.73-.19,2.69-.35,2.88-.48,.03-.03,.04-.05,.04-.08s-.05-.11-.14-.26c-.09-.15-.22-.31-.38-.5-.16-.19-.4-.47-.72-.84-.56-.67-.88-1.09-.96-1.28s-.11-.37-.08-.54c.03-.17,.11-.29,.24-.34Z"/><path class="e" d="M182.25,9.07c.24-.19,.75-.19,1.52,0,1.41,.29,2.35,.83,2.8,1.6,.19,.29,.39,.45,.6,.48,.16,.03,1.32,.05,3.48,.08,2.19,.05,3.57,.13,4.14,.24s.95,.37,1.14,.8,.21,.77,.08,1.04l-.16,.24h-3.68c-3.09,.03-5.79,.16-8.08,.4-1.01,.11-2.11,.21-3.28,.32-.99,.05-1.63,.11-1.92,.18-.29,.07-.48,.18-.56,.34-.29,.59-.95,5.59-1.96,15-.19,1.92-.41,4.15-.68,6.68-.19,1.52-.33,2.7-.44,3.54-.11,.84-.24,1.53-.4,2.06-.16,.53-.32,.88-.48,1.04s-.37,.24-.64,.24c-.61-.03-1.08-.36-1.4-1-.16-.32-.25-.77-.26-1.36-.01-.59,.06-1.01,.22-1.28,.27-.48,.6-.51,1-.08,.19,.21,.31,.27,.36,.16,.16-.29,.35-1.9,.56-4.82,.21-2.92,.25-4.42,.12-4.5-.05-.03-.72,.15-2,.52-1.31,.37-2.24,.56-2.8,.56-.51,0-.85-.05-1.02-.14-.17-.09-.26-.29-.26-.58,0-.64,.52-1.23,1.56-1.76,.37-.19,1.09-.31,2.16-.36,1.09-.05,1.8-.15,2.12-.28,.32-.16,.53-.34,.64-.54,.11-.2,.16-.5,.16-.9,0-.35-.02-.57-.06-.66-.04-.09-.14-.22-.3-.38-.27-.21-.77-.51-1.52-.88-1.73-.91-2.73-1.57-3-2-.11-.21-.16-.4-.16-.56,0-.32,.09-.61,.28-.88,.19-.27,.39-.4,.6-.4,.51,0,1.48,.48,2.92,1.44,.83,.56,1.28,.84,1.36,.84,.13,0,.37-1.37,.72-4.12,.29-2.32,.45-3.74,.46-4.26,.01-.52-.07-.81-.26-.86-.13-.03-.26-.15-.38-.36-.12-.21-.18-.44-.18-.68,0-.43,.23-.7,.7-.82,.47-.12,1.82-.23,4.06-.34,.8-.05,1.42-.09,1.86-.12,.44-.03,.79-.05,1.06-.08,.27-.03,.44-.05,.52-.08,.08-.03,.12-.05,.12-.08-.05-.05-.32-.27-.8-.64-.83-.61-1.15-1.13-.96-1.56,.08-.21,.19-.36,.32-.44Zm9.84,20.56c.43-.05,.79-.07,1.08-.04,.32,.03,.66,.13,1.02,.3,.36,.17,.58,.34,.66,.5,.16,.37,.03,.92-.4,1.64-.32,.48-1.09,1.48-2.32,3-1.23,1.52-2.15,2.61-2.76,3.28l-.56,.6,.44,.24c.75,.43,1.59,.8,2.52,1.12,1.81,.59,3.91,1.15,6.28,1.68,1.01,.24,1.64,.41,1.88,.5,.24,.09,.43,.23,.56,.42,.21,.32,.09,.56-.36,.72-.69,.24-2.39,.12-5.08-.36-2.43-.4-4.61-1.01-6.56-1.84l-1.2-.52-.4,.24c-.29,.13-.72,.41-1.28,.84-1.04,.77-1.73,1.16-2.08,1.16-.19,0-.37-.07-.56-.2s-.32-.28-.4-.44c-.19-.48-.03-.8,.48-.96,.51-.16,1.12-.56,1.84-1.2l.64-.6-1.08-1.16c-1.23-1.25-2.23-2.41-3.02-3.48-.79-1.07-1.18-1.77-1.18-2.12,0-.13,.11-.32,.34-.56,.23-.24,.43-.4,.62-.48,.29-.13,.67,.03,1.12,.48l.48,.44,2.04-.8c3.71-1.47,6.12-2.27,7.24-2.4Zm-5.76-11.28c1.47-.29,2.65-.43,3.56-.4,.8,.03,1.36,.09,1.68,.2,.32,.11,.6,.33,.84,.68,.19,.29,.27,.6,.24,.92-.03,.32-.16,.81-.4,1.48-.27,.72-.4,1.12-.4,1.2,0,.27,.63,.79,1.88,1.56,.61,.35,.99,.58,1.14,.7s.27,.26,.38,.42c.24,.35,.27,.65,.1,.92-.17,.27-.49,.4-.94,.4-.56,0-1.29-.21-2.2-.62-.91-.41-1.57-.83-2-1.26-.35-.35-.57-.65-.68-.92-.11-.27-.15-.67-.12-1.2,.03-.27,.04-.79,.04-1.56l.04-.6-.44-.04c-.67-.05-1.81,.17-3.44,.68l-1,.32,.04,1.72c.05,1.17,.11,2.01,.16,2.52,.08,.56,.12,1.29,.12,2.2s-.04,1.43-.12,1.56c-.21,.4-.53,.27-.96-.4-.11-.19-.21-.37-.32-.56-.51-1.12-.84-2.21-1-3.28-.05-.4-.11-1.04-.16-1.92-.03-.8-.09-1.31-.2-1.52-.16-.32-.05-.79,.32-1.4,.21-.35,.36-.61,.44-.8,.13-.35,.43-.52,.88-.52,.19-.03,1.03-.19,2.52-.48Zm5.64,13.48c.13-.16-.2-.13-1,.08-.53,.13-1.29,.37-2.28,.72-2.85,.96-4.28,1.63-4.28,2,0,.27,.55,.97,1.64,2.12l1.04,1.12,.24-.2c.16-.16,.59-.69,1.28-1.6,.8-1.04,1.52-1.96,2.16-2.76,.75-.91,1.15-1.4,1.2-1.48Z"/><path class="e" d="M209.65,24.47c.32-.21,.55-.32,.68-.32s.35,.11,.66,.34c.31,.23,.54,.47,.7,.74,.27,.4,.71,1.88,1.32,4.44,.51,2,.77,3.3,.8,3.9,.03,.6-.16,.98-.56,1.14-.53,.29-.93,.03-1.2-.8-.24-.43-.59-1.25-1.04-2.48-.69-1.57-1.17-3.05-1.44-4.44-.21-.83-.31-1.38-.3-1.66,.01-.28,.14-.57,.38-.86Zm12.32-12.44c.16-.11,.42-.16,.78-.16s.62,.05,.78,.16l.36,.2,.08,1.44c.27,5.07,.33,10.53,.2,16.38s-.39,9.18-.76,9.98c-.37,.72-.93,.93-1.68,.64-.75-.4-1.12-.88-1.12-1.44,0-.21,.2-.51,.6-.88,.43-.43,.64-.76,.64-1,.21-.59,.33-2.97,.34-7.14,.01-4.17-.06-7.27-.22-9.3,0-.13-.02-.82-.06-2.06s-.06-2.23-.06-2.98c-.05-1.79-.07-2.87-.06-3.24,.01-.37,.07-.57,.18-.6Zm11.28,12.12c.59-.21,1.21,0,1.88,.64,.85,.85,1.68,2.28,2.48,4.28s1.07,3.23,.8,3.68c-.21,.11-.49,.2-.84,.28h-.64l-.08-.44c-.13-.32-.96-1.71-2.48-4.16-1.04-1.52-1.67-2.47-1.9-2.86-.23-.39-.31-.65-.26-.78,.21-.43,.56-.64,1.04-.64Z"/><path class="e" d="M252.97,12.35c.16-.19,.41-.25,.76-.2,.64,.08,1.01,.25,1.12,.52,.03,.11-.01,.45-.12,1.04-.16,.61-.24,1.03-.24,1.24,0,.29,.13,.47,.4,.52,.27,.05,1.01,.05,2.24,0l2.16-.08,.16,.24c.05,.13,.09,.41,.12,.84,0,.53-.15,.87-.46,1.02-.31,.15-1.21,.3-2.7,.46-.99,.11-1.52,.19-1.6,.24-.08,.03-.1,1.15-.06,3.36,.04,2.21,.09,3.35,.14,3.4,.05,.05,.39,.02,1-.1,.61-.12,.97-.13,1.06-.04,.09,.09,.1,.22,.02,.38-.19,.35-.72,.87-1.6,1.56-.32,.27-.51,.48-.56,.64-.19,.48-.4,2.67-.64,6.56-.24,3.6-.57,5.55-1,5.84-.13,.11-.32,.11-.56,0-.19-.11-.45-.4-.8-.88-.35-.48-.52-.8-.52-.96,0-.03,.12-.17,.36-.44,.27-.27,.45-.55,.54-.86,.09-.31,.17-.83,.22-1.58,.05-.67,.09-1.83,.1-3.48,.01-1.65,0-2.48-.06-2.48s-.41,.17-1.08,.52c-1.36,.75-2.48,1.23-3.36,1.44l-.64,.16-.28-.28c-.19-.19-.31-.39-.36-.6-.03-.21,.08-.44,.32-.68,.24-.21,.83-.56,1.76-1.04,.91-.43,1.75-.88,2.54-1.36,.79-.48,1.23-.79,1.34-.92,.29-.43,.36-2.03,.2-4.8-.05-1.6-.11-2.57-.16-2.92l-.04-.44h-1.56c-1.04,0-1.68-.05-1.92-.16-.24-.16-.39-.33-.44-.5-.05-.17-.01-.42,.12-.74l.16-.52,1.04-.08c1.44-.08,2.21-.2,2.32-.36,.05-.11,.11-.52,.16-1.24,.05-.85,.1-1.41,.14-1.66s.13-.45,.26-.58Zm9.72,14.76c.37-.19,.63-.28,.76-.28,.11,0,.31,.15,.6,.44,.29,.29,.44,.49,.44,.6s-.08,.23-.24,.36c-.35,.29-.63,.58-.84,.86-.21,.28-.53,.78-.96,1.5l-.88,1.56,1.44,1.4c2.37,2.27,4.37,3.92,6,4.96,1.04,.69,2.45,1.51,4.24,2.46,1.79,.95,2.95,1.5,3.48,1.66,.37,.13,1.12,.23,2.24,.28,1.17,.05,1.79,.11,1.84,.16,.08,.05,.11,.17,.1,.36-.01,.19-.07,.36-.18,.52-.21,.37-.57,.63-1.08,.78-.51,.15-1.08,.18-1.72,.1-1.31-.21-3.29-.95-5.94-2.2-2.65-1.25-4.73-2.45-6.22-3.6-.85-.64-2.12-1.75-3.8-3.32-.85-.8-1.32-1.2-1.4-1.2-.19,0-.76,1.2-1.72,3.6-.56,1.36-.97,2.15-1.24,2.36-.24,.13-.51,.17-.82,.1s-.49-.22-.54-.46c-.11-.4,.47-1.95,1.72-4.64,2.05-4.45,3.32-6.99,3.8-7.6,.24-.32,.55-.57,.92-.76Zm6.72-6.2c.96-.13,1.93-.19,2.92-.16,.96,.03,1.57,.11,1.84,.26s.47,.33,.6,.54c.08,.16,.12,.27,.12,.34s-.05,.22-.16,.46c-.16,.29-.33,.48-.52,.56-.19,.05-1.03,.12-2.52,.2-.11,0-.27,.01-.48,.04-1.09,.03-1.74,.11-1.94,.26-.2,.15-.31,.61-.34,1.38-.03,.13-.04,.24-.04,.32-.03,.83-.05,1.68-.06,2.56-.01,.88,0,1.32,.02,1.32s.51-.09,1.44-.28c1.95-.45,3.13-.55,3.56-.28,.29,.21,.47,.51,.52,.9,.05,.39-.05,.67-.32,.86-.16,.11-.67,.21-1.52,.32-2.43,.4-3.69,.65-3.8,.76-.03,.03-.07,.85-.12,2.48-.05,1.63-.13,2.56-.24,2.8-.11,.24-.2,.37-.28,.4-.13,.03-.3-.01-.5-.12-.2-.11-.34-.24-.42-.4-.24-.45-.36-3.28-.36-8.48v-4.64l-.32,.04c-.8,.13-2.24,.24-4.32,.32l-1.84,.08v-.68c0-.45,.03-.76,.1-.92,.07-.16,.23-.27,.5-.32,.29-.08,1.53-.23,3.72-.44,2.32-.21,3.91-.37,4.76-.48Zm-3.2-13.36c1.23-.11,2.4-.12,3.52-.04,2.77,.24,4.76,.91,5.96,2,.24,.21,.36,.41,.36,.6s-.13,.61-.4,1.28c-.4,1.12-1.13,2.51-2.2,4.16-.45,.72-1.03,1.63-1.72,2.72-.43,.69-.76,1.09-1,1.2-.37,.13-1.63,.3-3.78,.5-2.15,.2-3.42,.26-3.82,.18-.27-.05-.47-.12-.6-.2-.59-.37-1.01-2.03-1.28-4.96-.08-1.01-.13-2.23-.14-3.64-.01-1.41,.02-2.41,.1-3l.12-.8,1.88,.04c1.25,.03,2.25,.01,3-.04Zm4.24,2.08c-.91-.08-2.1-.11-3.58-.08-1.48,.03-2.55,.09-3.22,.2l-.44,.08v1.24c0,.69,.03,1.12,.1,1.28,.07,.16,.25,.24,.54,.24,.37,0,1.79-.2,4.24-.6,.91-.13,1.96-.2,3.16-.2,1.04-.03,1.64-.07,1.8-.12,.16-.05,.24-.25,.24-.6,.03-.43-.29-.8-.96-1.12-.4-.16-1.03-.27-1.88-.32Zm1.44,4.36c-.11-.05-.47-.09-1.08-.1-.61-.01-1.08,0-1.4,.02-.69,.08-1.63,.25-2.82,.52s-2.03,.49-2.54,.68c-.32,.13-.51,.29-.58,.46-.07,.17-.1,.62-.1,1.34v1.04h1.2c1.71-.05,3.32-.24,4.84-.56,.35-.05,.65-.21,.92-.48,.27-.27,.57-.69,.92-1.28,.59-.99,.8-1.53,.64-1.64Z"/><path class="e" d="M295.61,12.99c.51-.08,.9-.09,1.18-.04,.28,.05,.58,.23,.9,.52,.48,.45,.64,.81,.48,1.06-.16,.25-.68,.49-1.56,.7-.91,.19-2.35,.38-4.34,.58-1.99,.2-3.51,.31-4.58,.34-.93,0-1.49-.07-1.68-.2-.19-.13-.29-.31-.32-.52-.03-.19,.02-.41,.14-.66,.12-.25,.25-.41,.38-.46,.35-.19,1.36-.36,3.04-.52,.69-.05,1.85-.18,3.46-.38s2.58-.34,2.9-.42Zm-2.72,3.2c.19-.11,.46-.06,.82,.14,.36,.2,.57,.42,.62,.66,.03,.11,.03,.47,0,1.1-.03,.63-.05,1.05-.08,1.26,0,.08,.36,.13,1.08,.16,1.41,.08,2.49,.41,3.24,1l.32,.24-.08,1.6c-.03,.96-.08,3.99-.16,9.08-.05,4.96-.15,7.89-.28,8.8-.08,.61-.15,1-.2,1.16s-.15,.31-.28,.44c-.27,.24-.53,.33-.78,.28-.25-.05-.43-.23-.54-.52-.16-.48-.12-1.08,.12-1.8,.24-.75,.25-1.16,.04-1.24-.24-.08-1.83,.31-4.76,1.16-1.79,.53-2.95,.85-3.5,.94-.55,.09-.9,.05-1.06-.14-.19-.21-.41-.79-.66-1.72-.25-.93-.46-1.85-.62-2.76-.24-1.6-.29-4.49-.16-8.68,.08-2.32,.2-3.85,.36-4.6,.16-.75,.51-1.31,1.04-1.68,.45-.29,.92-.49,1.4-.6,.16-.03,.27-.1,.32-.22s.15-.47,.28-1.06c.32-1.47,.73-2.03,1.24-1.68,.05,.03,.09,.07,.12,.12,.19,.19,.29,.49,.32,.9,.03,.41,.09,.7,.18,.86,.09,.16,.26,.24,.5,.24,.16,0,.31-.05,.44-.14,.13-.09,.2-.18,.2-.26,.03-.21,.05-.43,.06-.64,.01-.21,.03-.41,.06-.6,.08-1.07,.21-1.67,.4-1.8Zm-1.2,5.88c-.11-.4-.27-.44-.48-.12-.13,.21-.23,.59-.28,1.14-.05,.55-.13,1.77-.24,3.66-.21,3.57-.39,5.49-.52,5.76-.13,.24-.35,.33-.64,.26-.29-.07-.51-.23-.64-.5-.13-.27-.17-2.43-.12-6.48,.03-1.92,0-2.92-.08-3-.16-.16-.29-.04-.4,.36-.03,.16-.07,.35-.12,.56-.08,.45-.25,2.47-.52,6.04-.05,.99-.05,1.91,0,2.76,.08,.8,.13,1.23,.16,1.28,.05,.03,.65-.04,1.78-.2,1.13-.16,1.73-.27,1.78-.32,.08-.11,.15-.65,.2-1.64,.08-1.15,.13-2.99,.16-5.52,.03-2.53,.01-3.88-.04-4.04Zm3.32-.56c-.21-.13-.35-.2-.4-.2-.16,0-.43,1.04-.8,3.12-.35,2-.52,4.37-.52,7.12v1.52l1.04,.12c.56,.05,.95,.13,1.16,.22,.21,.09,.4,.25,.56,.46,.08,.16,.06,.39-.06,.68-.12,.29-.3,.49-.54,.6-.16,.11-1.25,.31-3.28,.6-2.03,.29-3.25,.44-3.68,.44-.19,0-.3,.02-.34,.06s-.06,.14-.06,.3c0,.24,.05,.51,.16,.82,.11,.31,.23,.5,.36,.58,.16,.13,.43,.18,.82,.14,.39-.04,1.19-.18,2.42-.42,2.32-.48,3.73-.63,4.24-.44,.29,.13,.52,.27,.68,.4,.13,.13,.23,.17,.28,.12,.08-.05,.08-1.47,0-4.26-.08-2.79-.17-4.86-.28-6.22-.13-1.76-.34-3.09-.62-3.98-.28-.89-.66-1.49-1.14-1.78Zm8.4,2.84c.4-.13,.67-.13,.8,0,.19,.19,.19,.56,0,1.12-.08,.35-.12,.57-.12,.68,0,.13-.07,.33-.2,.6s-.17,.43-.12,.48c.13,.13,.59,.22,1.36,.26s1.51,.03,2.2-.02l.6-.08,.08-.72c.08-.93,.43-1.65,1.04-2.16,.32-.21,.52-.31,.6-.28,.27,.05,.4,.55,.4,1.48,.03,.53,.13,.91,.32,1.12l.24,.28,1.56-.12c1.12-.05,2.11-.13,2.96-.24,.93-.11,1.64-.16,2.12-.16s.8,.09,.96,.28c.13,.11,.22,.27,.26,.48,.04,.21,.02,.39-.06,.52-.11,.16-.47,.29-1.1,.4-.63,.11-1.82,.24-3.58,.4-2,.19-3.12,.39-3.36,.6-.21,.19-.24,.97-.08,2.36,.13,1.15,.31,1.76,.52,1.84,.11,.03,.79,.05,2.04,.08l1.84,.08,.2,.44c.19,.4,.21,.76,.08,1.08-.05,.16-.17,.26-.36,.3s-.83,.13-1.92,.26c-1.17,.13-1.8,.24-1.88,.32-.13,.13-.25,.78-.36,1.94-.11,1.16-.11,1.83,0,2.02,.11,.16,.34,.25,.7,.28,.36,.03,1.13-.01,2.3-.12,1.36-.11,2.91-.17,4.64-.2,1.63,0,2.56,.07,2.8,.2,.32,.16,.5,.33,.54,.52s-.09,.35-.38,.48c-.43,.24-2.45,.55-6.08,.92-.48,.05-1.1,.12-1.86,.2s-1.41,.15-1.94,.2c-.53,.05-.92,.09-1.16,.12-.96,.11-2.32,.16-4.08,.16-1.31,0-2.09,0-2.34-.02-.25-.01-.51-.09-.78-.22-.32-.16-.49-.31-.52-.44-.03-.19,0-.45,.1-.78,.09-.33,.18-.51,.26-.54,.11-.03,1.03-.07,2.78-.14,1.75-.07,2.67-.13,2.78-.18,.11-.03,.18-.19,.22-.5,.04-.31,.07-1.05,.1-2.22l.04-1.84-.88,.08c-.64,.05-1.45,.09-2.44,.12-1.07,.05-1.77,.02-2.12-.1s-.56-.38-.64-.78c-.08-.51,.05-.83,.4-.96,.35-.13,1.35-.28,3-.44,1.71-.13,2.58-.22,2.62-.26s.02-.49-.06-1.34-.17-1.51-.28-1.96c-.08-.4-.19-.63-.34-.7-.15-.07-.58-.09-1.3-.06-.88,.05-1.88,.08-3,.08h-1.8l-.44-.28c-.32-.19-.51-.37-.56-.54-.05-.17,0-.43,.16-.78,.19-.51,.45-1.07,.8-1.68,.35-.61,.64-1.04,.88-1.28,.29-.32,.57-.53,.84-.64Zm.2-14.72c.27-.16,.56-.17,.88-.04,.32,.13,.48,.36,.48,.68v.32l.8,.08c2.21,.19,4.4,.57,6.56,1.16,1.31,.35,2.15,.72,2.52,1.12,.37,.4,.56,1.12,.56,2.16,0,.72-.09,1.4-.28,2.04-.72,2.64-1.67,4.21-2.84,4.72-.32,.13-.95,.31-1.88,.54-.93,.23-1.69,.38-2.28,.46-.75,.08-1.67,.13-2.76,.16-1.07,0-1.71-.07-1.92-.2-.19-.11-.35-.27-.48-.5-.13-.23-.2-.42-.2-.58,0-.11,.11-.39,.32-.84,.21-.45,.29-.85,.22-1.18-.07-.33-.29-.74-.66-1.22-.43-.48-.51-.91-.24-1.28,.11-.11,.16-.73,.16-1.88,0-.83-.01-1.35-.04-1.56-.03-.21-.09-.45-.2-.72-.19-.37-.25-.67-.2-.88,.03-.19,.25-.63,.66-1.34,.41-.71,.69-1.11,.82-1.22Zm5.04,3.56c-.93-.13-1.79-.21-2.56-.24l-1.2-.08v1.8c0,1.17,.04,1.77,.12,1.8,.08,.03,.74-.03,1.98-.16s2.38-.23,3.42-.28c1.07-.08,1.73-.16,1.98-.24,.25-.08,.42-.24,.5-.48,.16-.53-.01-.92-.52-1.16-.75-.37-1.99-.69-3.72-.96Zm3.68,4.92c-.35-.29-2.36-.13-6.04,.48-.4,.08-.64,.18-.72,.3s-.11,.42-.08,.9c.03,.35,.13,.61,.32,.8,.13,.13,.27,.21,.4,.24,.13,.03,.49,.03,1.08,0,.72,0,1.5-.05,2.34-.16,.84-.11,1.41-.23,1.7-.36,.29-.13,.53-.4,.72-.8,.37-.77,.47-1.24,.28-1.4Z"/></g></g></g></svg>