<?xml version="1.0" encoding="UTF-8"?><svg xmlns="http://www.w3.org/2000/svg" viewBox="0 0 511.62 481.72"><defs><style>.d{fill:#231815;}</style></defs><g id="a"/><g id="b"><g id="c"><path class="d" d="M499.9,388.21c-2.8-31.07-3.2-62.19-2.22-93.39,.98-31.12,2.72-62.22,4.2-93.32,1.49-31.29,2.97-62.57,4.46-93.86l4.98-104.8c.01-.21-.44-.31-.53-.31-63.7-2.92-127.32,3.5-191.01,3.76-16.29,.07-32.57-.29-48.84-1.29-15.71-.96-31.4-2.42-47.11-3.51-15.77-1.1-31.56-1.77-47.36-1.39-15.93,.38-31.83,1.61-47.72,2.92-35.49,2.91-71.23,6.16-106.69,1.04-.31-.04-.95,.18-1.48,.47-.03-.86-.05-1.72-.09-2.58-.03-.75-2.94-.17-2.9,.88,2.73,70.91-.44,141.97-9.3,212.22C3.97,249.36-1.23,283.89,.26,318.67c1.42,33.3,10.02,65.58,11.54,98.87,.38,8.27,.3,16.59-.52,24.82-.38,3.8-.91,7.59-1.61,11.34-.72,3.82-2.18,7.75-2.42,11.64-.41,6.65,5.39,8,9.98,8.69,7.56,1.15,15.16,2.05,22.76,2.8,30.59,3.03,61.37,3.7,92.06,4.49,30.89,.79,61.85,.71,92.58-3.29,30.7-4,60.99-11.35,91.75-14.72,30.69-3.37,61.57-3.3,92.38-2.78,27.28,.46,55.91-.49,81.99,10.05,6.31,2.55,12.36,5.82,18.05,9.85,.53,.37,2.96,0,2.81-1.03-4.47-30.29-8.95-60.61-11.7-91.17Zm-63.52,71.35c-30.2-1.02-60.54-1.52-90.73,0-30.37,1.53-60.17,6.9-90.17,12.21-15.41,2.73-30.85,5.18-46.4,6.55-15.52,1.37-31.1,1.85-46.66,1.87-30.9,.04-61.9-1.02-92.77-2.77-15.58-.88-31.14-2.18-46.63-4.35-3.07-.43-6.47-.52-9.34-1.93-3.8-1.86-3.87-5.86-2.92-9.95,1.81-7.76,3.18-15.51,3.75-23.52,2.32-32.6-5.52-64.67-9.38-96.72-4.2-34.83-1.18-69.4,3.18-104.01,4.36-34.62,8.42-69.19,10.62-104.09,2.19-34.85,2.97-69.81,2.32-104.74-.14-7.51-.36-15.01-.63-22.51C79,13.94,137.44,.04,195.92,1.66c29.46,.82,58.78,4.47,88.23,5.61,29.2,1.13,58.43,.37,87.62-.78,29.44-1.16,58.87-2.72,88.33-3.12,15.11-.2,30.23-.11,45.34,.51,.49,.02,2.18-.21,2.51,.11,.75,.73,.35,2.25,.31,3.19-.09,1.92-.18,3.84-.27,5.76-.21,4.41-.42,8.83-.63,13.24-.4,8.45-.8,16.89-1.2,25.34-3.22,67.75-6.45,135.51-9.66,203.26-1.6,33.77-3.11,67.62-1.69,101.44,1.4,33.34,5.58,66.43,10.3,99.35,1.03,7.16,2.08,14.31,3.14,21.46-21.74-13.95-47.29-16.64-71.86-17.47Z"/></g></g></svg>