<?xml version="1.0" encoding="UTF-8"?><svg xmlns="http://www.w3.org/2000/svg" viewBox="0 0 156.61 37.36"><defs><style>.d{fill:#231815;stroke:#231815;stroke-miterlimit:10;stroke-width:.32px;}</style></defs><g id="a"/><g id="b"><g id="c"><g><path class="d" d="M8.58,9.37c.63-.11,1.29-.12,1.99-.04,.7,.08,1.05,.23,1.05,.45,0,.08-.14,.25-.41,.49-.27,.25-.55,.45-.82,.62-.71,.41-1.82,.75-3.33,1.03-1.51,.27-3.03,.41-4.56,.41-.88,0-1.45-.05-1.71-.14-.26-.1-.45-.32-.55-.68-.19-.58-.03-.97,.49-1.19,.41-.16,2.14-.37,5.18-.62,1.21-.11,2.1-.22,2.67-.33Zm-.66,6.25s.21-.03,.55-.02c.34,.01,.6,.05,.76,.1,.33,.14,.45,.35,.35,.64-.1,.29-.39,.6-.88,.92-1.23,.82-2.83,1.23-4.81,1.23-.82,0-1.37-.03-1.64-.1-.27-.07-.52-.2-.74-.39-.66-.63-.77-1.15-.33-1.56,.11-.11,.4-.2,.88-.27,.48-.07,1.69-.17,3.64-.31,1.45-.14,2.19-.22,2.22-.25Zm-3.9,10.64c.22-.03,.77-.03,1.66,0s1.61,.07,2.16,.12c1.23,.16,2.12,.52,2.67,1.07,.71,.74,1.14,1.41,1.27,2.01,.05,.44-.25,1.08-.9,1.93-.99,1.21-2.41,2.27-4.27,3.21-2,.99-3.34,1.27-4.03,.86-.25-.14-.42-.32-.51-.53-.1-.22-.2-.66-.31-1.31-.16-.88-.32-1.63-.45-2.26-.16-.68-.27-1.42-.33-2.22-.06-.79-.04-1.25,.04-1.36,.16-.19,.61-.47,1.33-.84,.73-.37,1.28-.6,1.67-.68Zm-2.36-4.03c.1-.11,.29-.22,.58-.33,.29-.11,1.13-.14,2.53-.08,1.53,.03,2.58,.11,3.14,.25,.56,.14,.98,.4,1.25,.78,.17,.22,.21,.39,.14,.51-.07,.12-.25,.23-.56,.31-.47,.14-1.55,.24-3.25,.31-1.7,.07-2.75,.05-3.17-.06-.66-.14-.94-.51-.86-1.11,.03-.27,.09-.47,.18-.58Zm6.35,6.54c-.33-.08-1.03-.12-2.12-.12s-1.72,.04-1.91,.12c-.22,.11-.47,.33-.74,.66l-.37,.49,.21,.74c.41,1.21,.78,1.88,1.11,2.01,.22,.11,.75,0,1.6-.33s1.63-.73,2.34-1.19c.96-.6,1.34-1.11,1.15-1.52-.19-.44-.62-.73-1.27-.86ZM3.28,4.35c.19-.19,.45-.27,.78-.25,.74,.11,1.78,.6,3.12,1.48,.52,.36,1.06,.8,1.62,1.33,.56,.53,.86,.9,.88,1.09,.08,.41-.01,.67-.29,.78-.22,.08-1.17-.25-2.84-.99-1.23-.55-2.09-.99-2.57-1.34-.48-.34-.79-.72-.92-1.13-.06-.27-.08-.47-.06-.6,.01-.12,.1-.25,.27-.39Zm18.25,.78c.17-.14,.29-.21,.39-.21s.24,.06,.43,.17c.41,.3,.79,.89,1.15,1.77l.25,.7,2.42,.08c1.64,.11,2.6,.19,2.88,.25,.49,.14,.74,.38,.74,.74,0,.19-.08,.42-.25,.7-.17,.27-.35,.47-.55,.6-.21,.12-.47,.19-.8,.19s-1.15-.05-2.47-.17c-.77-.08-1.18-.11-1.23-.08-.19,.19,.17,2.31,1.07,6.35,.9,4.04,1.46,6.06,1.68,6.06,.08,0,.66-1.03,1.73-3.08,1.12-2.14,1.86-3.3,2.22-3.49,.36-.19,.74-.14,1.15,.16,.25,.14,.29,.41,.12,.82-.17,.41-.75,1.58-1.77,3.49-.55,1.07-1.14,2.21-1.77,3.41l-.78,1.56,1.07,2.1c1.67,3.23,2.97,5.19,3.9,5.88l.49,.37,.37-.33c.3-.3,.55-.36,.76-.17,.21,.19,.33,.62,.39,1.27l.04,.82-.33,.25c-.52,.36-1.16,.34-1.93-.04-.99-.49-2.48-2.32-4.48-5.47-.19-.27-.39-.58-.6-.92-.21-.34-.38-.62-.51-.82-.14-.21-.22-.33-.25-.39-.14-.22-.23-.33-.27-.35s-.1,.03-.18,.14c-.03,.03-.12,.14-.27,.33s-.36,.47-.64,.82c-.27,.36-.52,.69-.74,.99-1.73,2.25-2.83,3.59-3.33,4.03l-.25,.25-.33-.21c-.44-.33-.56-.69-.37-1.07,.33-.6,1.34-2.12,3.04-4.56,.74-1.04,1.21-1.75,1.42-2.14,.21-.38,.31-.71,.31-.99,0-.22-.1-.85-.29-1.89-.19-.88-.77-3.25-1.73-7.11-.96-3.86-1.46-5.82-1.5-5.88s-.82-.03-2.32,.06c-1.51,.1-2.38,.17-2.63,.23-.41,.11-.69,.34-.84,.7-.15,.36-.31,1.08-.47,2.18-.38,2.52-.58,4.26-.58,5.22v.33l.62-.41c.93-.6,2.05-.93,3.37-.99,.49-.03,.82-.03,.97-.02s.36,.09,.64,.23c.38,.19,.68,.41,.9,.66,.14,.19,.22,.34,.25,.45,.03,.11,.03,.36,0,.74-.05,.58-.18,1.25-.37,2.01-.19,.77-.57,2.08-1.13,3.92s-.9,2.87-1.01,3.06c-.11,.27-.34,.46-.68,.55-.34,.1-.62,.08-.84-.06-.27-.22-.07-1.52,.62-3.9,.52-1.83,.82-3.08,.9-3.74,.08-.66-.01-1.14-.29-1.44-.11-.14-.2-.21-.27-.23-.07-.01-.24,0-.51,.06-.38,.08-.83,.24-1.34,.47-.51,.23-.84,.43-1.01,.6-.19,.19-.33,.43-.41,.7-.08,.27-.3,.6-.66,.99l-.53,.58v2.42c.03,1.67,.15,3.36,.37,5.05,.22,1.73,.3,2.67,.25,2.84-.03,.16-.12,.27-.27,.31-.15,.04-.29,0-.43-.1-.69-.44-1.17-1.78-1.44-4.03-.08-.82-.12-2.27-.1-4.36,.01-2.08,.08-3.62,.19-4.6,.27-2.58,.61-5.05,1.01-7.42,.4-2.37,.72-3.79,.97-4.25,.14-.27,.42-.46,.86-.58,.44-.11,1.37-.25,2.79-.41,1.34-.14,2.07-.22,2.18-.25,.11-.05,.18-.25,.21-.58,.16-1.04,.37-1.69,.62-1.93Zm5.71-3.21c.36-.36,.86-.37,1.52-.04,.63,.3,1.34,.9,2.12,1.79,.78,.89,1.17,1.53,1.17,1.91,0,.14-.06,.27-.19,.39-.12,.12-.25,.19-.39,.19-.25,0-.9-.34-1.97-1.03-1.07-.66-1.77-1.11-2.1-1.36-.33-.25-.52-.47-.58-.66-.14-.41,0-.81,.41-1.19Z"/><path class="d" d="M49.51,.28c.27-.11,.55-.13,.84-.06,.29,.07,.47,.18,.56,.35,.08,.14,.16,.47,.25,.99,.05,.49,.1,.81,.12,.95,.05,.14,.23,.25,.51,.35,.29,.1,.6,.14,.92,.14,.82,0,1.62,.17,2.38,.49,.27,.11,.52,.26,.74,.45,.22,.19,.33,.34,.33,.45,0,.36-.89,.62-2.67,.78-.52,.05-.84,.14-.97,.27-.12,.12-.2,.47-.23,1.05l-.08,.9,.41,.08c.52,.06,.97,.11,1.36,.17,1.64,.16,2.63,.47,2.96,.9,.11,.19,.16,.41,.14,.66-.01,.25-.09,.45-.23,.62-.14,.14-.27,.22-.39,.25s-.43,.05-.92,.08c-.69,0-1.03,.01-1.03,.04l-.37,1.89c-.22,1.29-.33,1.99-.33,2.1,0,.14,.14,.21,.41,.21,1.18,0,1.93,.3,2.26,.9,.22,.38,.01,.73-.62,1.03-.47,.25-1.32,.47-2.55,.66-.88,.11-1.45,.25-1.71,.43-.26,.18-.42,.55-.47,1.13l-.04,.62,.9-.04c.6-.05,1.4-.1,2.38-.12,.88,0,1.44,.04,1.68,.12,.25,.08,.4,.27,.45,.58,.08,.38-.07,.68-.45,.88s-1.17,.39-2.34,.55c-.9,.16-1.5,.28-1.79,.35-.29,.07-.47,.17-.55,.31-.11,.14-.2,.56-.27,1.25s-.14,1.09-.23,1.17c-.17,.19-.43,.19-.78,0-.19-.11-.32-.23-.37-.37s-.12-.48-.21-1.03c-.06-.41-.1-.68-.14-.8-.04-.12-.12-.2-.23-.23-.16-.08-.81-.15-1.93-.21-.96-.05-1.55-.13-1.79-.23-.23-.1-.38-.28-.43-.56-.08-.41,.06-.72,.43-.92,.37-.21,1.05-.36,2.03-.47,.93-.11,1.46-.21,1.6-.31,.14-.1,.19-.36,.16-.8-.03-.44-.1-.7-.21-.78-.08-.05-.44-.14-1.07-.25-.82-.14-1.4-.3-1.73-.49-.33-.19-.49-.46-.49-.82,0-.22,.06-.39,.19-.51,.12-.12,.39-.29,.8-.51,.47-.25,.73-.43,.8-.56,.07-.12,.02-.28-.14-.47l-.33-.33,.04-1.93v-1.97l-.95-.04c-.93-.05-1.55-.27-1.85-.66-.11-.14-.16-.24-.16-.31s.05-.2,.16-.39c.14-.27,.29-.45,.45-.53,.14-.08,1.07-.15,2.79-.21,1.67-.05,2.55-.1,2.63-.12,.11-.05,.12-.25,.04-.6-.08-.34-.22-.65-.41-.92-.14-.22-.52-.41-1.15-.58-.99-.3-1.63-.56-1.93-.78-.3-.22-.38-.49-.25-.82,.16-.36,.6-.59,1.31-.7,.47-.05,.81-.12,1.03-.21l.37-.12-.08-.95c-.03-.49-.02-.84,.02-1.03s.16-.33,.35-.41Zm2.51,9.78s-.47-.03-1.32-.08c-.85-.05-1.3-.04-1.36,.04-.05,.08-.12,.4-.21,.95-.08,.49-.04,.96,.12,1.4,.14,.44,.23,.81,.29,1.11,.05,.44,.18,.75,.37,.92,.19,.18,.51,.27,.95,.27,.3,0,.51-.07,.62-.21,.11-.14,.21-.47,.29-.99,.11-.49,.2-1.17,.27-2.04,.07-.86,.06-1.32-.02-1.38Zm10.56,11.3c.27-.08,.6-.08,.99,.02s.64,.23,.78,.39c.22,.27,.18,.59-.12,.95-.27,.36-1.19,.7-2.75,1.03-.99,.19-1.62,.34-1.89,.45-.22,.08-.38,.19-.47,.33-.1,.14-.08,.25,.06,.33,.11,.08,.82,.11,2.14,.08l2.01-.04,.45,.29c.52,.36,.67,.71,.45,1.07-.25,.44-1.06,.71-2.42,.82-1.26,.11-1.91,.23-1.93,.37,0,.06,.12,.22,.37,.49l.33,.37,3.17,.08c2.44,.05,3.81,.18,4.11,.37,.25,.16,.37,.42,.37,.78,0,.27-.11,.43-.33,.47-.22,.04-.79,.06-1.73,.06-1.59,0-2.93,.1-4.03,.29l-.41,.04v.58c0,.38,.08,.82,.25,1.32,.19,.52,.27,1.08,.25,1.68-.06,.74-.2,1.29-.43,1.64-.23,.36-.67,.68-1.29,.99-1.12,.58-2.19,.73-3.21,.45-.33-.08-.64-.19-.95-.33-.3-.14-.45-.25-.45-.33,0-.05-.18-.15-.53-.29-.38-.19-.81-.44-1.27-.74-.49-.33-1.18-.69-2.05-1.07-1.26-.55-1.97-1.03-2.14-1.44-.08-.19-.04-.36,.12-.49,.16-.14,.38-.19,.66-.16,.27,.03,.51,.11,.7,.25,.19,.11,.53,.25,1.01,.41,.48,.16,1.18,.45,2.12,.86,.9,.38,1.64,.68,2.22,.9,1.53,.58,2.63,.53,3.29-.12,.19-.19,.29-.51,.29-.97s-.15-.98-.45-1.58l-.49-.95h-3.45c-1.81,0-2.96-.02-3.45-.06s-.88-.17-1.15-.39c-.25-.19-.31-.43-.18-.72,.12-.29,.39-.51,.8-.68,.22-.05,1.23-.12,3.04-.21,1.89-.05,2.88-.18,2.96-.37,.03-.05,.01-.14-.04-.25-.06-.25-.2-.4-.43-.47-.23-.07-.77-.13-1.62-.19-1.04-.08-1.67-.15-1.89-.21-.55-.14-.82-.48-.82-1.03,0-.41,.14-.71,.43-.9,.29-.19,.8-.31,1.54-.37,.58-.03,.93-.08,1.07-.16,.27-.19,.15-.34-.37-.45-.11-.03-.22-.05-.33-.08-1.56-.16-2.34-.58-2.34-1.23,0-.22,.05-.39,.16-.51,.11-.12,.36-.24,.76-.35,.4-.11,.92-.21,1.56-.29s1.58-.18,2.82-.29c2.33-.19,3.73-.34,4.19-.45Zm1.44-20.1c.3-.08,.62-.09,.97-.02s.55,.21,.64,.43c.14,.36,.1,1.64-.12,3.86-.08,.79-.1,1.22-.04,1.27,.05,.06,.7,.1,1.93,.12,.41,.03,.68,.04,.82,.04s.35,.02,.64,.06c.29,.04,.47,.05,.53,.04s.19,.03,.35,.14,.26,.16,.29,.16,.08,.09,.17,.27c.08,.18,.12,.3,.1,.37-.01,.07,0,.25,.02,.55s.04,.52,.04,.66v.82c-.03,1.01-.06,1.66-.1,1.95-.04,.29-.16,.75-.35,1.38-.25,.82-.45,1.67-.62,2.55-.16,.82-.33,1.56-.49,2.22-.25,1.18-.23,1.97,.04,2.38,.16,.22,.37,.33,.62,.33,.52-.03,1.29-.34,2.3-.95,.52-.3,1.03-.55,1.52-.74,.49-.19,.88-.29,1.17-.31,.29-.01,.46,.05,.51,.18,.05,.38-.45,.97-1.5,1.75-1.05,.78-2.08,1.33-3.06,1.66-.88,.3-1.68,.27-2.42-.08-.49-.25-.81-.56-.95-.95s-.18-1.07-.12-2.05c.08-1.7,.25-3.1,.49-4.19,.11-.41,.21-.95,.29-1.62,.08-.67,.19-1.2,.33-1.58,.19-.52,.23-1.04,.12-1.56-.11-.52-.33-.82-.66-.9-.14-.05-.58-.08-1.31-.08h-1.11l-.21,1.85c-.16,1.21-.23,1.9-.18,2.08,.04,.18,.24,.49,.6,.92,1.01,1.15,1.51,1.84,1.48,2.05-.03,.25-.27,.39-.72,.43s-.8-.05-1.05-.27c-.33-.3-.55-.3-.66,0-.06,.14-.12,.51-.21,1.11-.19,1.32-.47,2.07-.82,2.26-.17,.11-.37,.12-.62,.04-.27-.08-.47-.18-.58-.29-.11-.11-.16-.21-.14-.31s.08-.38,.18-.84c.17-.6,.25-1.3,.25-2.1,0-.66-.05-1.11-.14-1.36-.1-.25-.43-.7-1.01-1.36-.49-.49-.74-.79-.74-.9s.05-.25,.16-.41c.11-.16,.22-.29,.33-.37,.11-.05,.44-.11,.99-.17l.82-.04,.12-.99,.08-1.07h-1.19c-2,0-3.07-.23-3.21-.7-.16-.49-.12-.88,.12-1.15,.25-.25,1.19-.37,2.84-.37,.77,0,1.21-.04,1.32-.12,.3-.22,.49-1.4,.58-3.53,.05-1.07,.11-1.75,.16-2.03s.19-.47,.41-.55Z"/><path class="d" d="M94.27,1.64c1.51-.17,2.68-.21,3.53-.12,.71,.08,1.21,.21,1.5,.39,.29,.18,.43,.46,.43,.84,0,.52-.29,.86-.86,1.03-.3,.05-1.06,.12-2.26,.21-2.58,.17-3.99,.29-4.23,.37-.08,.03-.13,.18-.14,.47s.03,.54,.14,.76l.08,.25h2.14c1.51-.03,2.6,.04,3.29,.21,.68,.16,1.29,.48,1.81,.94,.71,.66,1.07,1.4,1.07,2.22,0,.44-.05,.81-.16,1.11-.11,.25-.3,.75-.58,1.52-.22,.69-.47,1.36-.74,2.01-.25,.63-.42,1.14-.53,1.52-.14,.44-.26,.73-.37,.86-.17,.14-.56,.34-1.19,.62-.66,.25-1.03,.43-1.13,.54-.1,.11-.09,.34,.02,.7,.14,.44,.27,.68,.41,.72,.14,.04,.59,.02,1.36-.06,1.32-.19,2.16-.16,2.55,.08,.33,.22,.48,.6,.45,1.13-.03,.53-.22,.9-.58,1.09-.16,.08-.77,.15-1.81,.21-1.04,.06-1.69,.12-1.93,.21-.27,.08-.62,.33-1.03,.74-.69,.66-.92,1.12-.7,1.4,.27,.3,1.16,.66,2.67,1.07,1.51,.38,2.52,.77,3.04,1.15,.22,.14,.35,.24,.39,.31,.04,.07,.05,.21,.02,.43-.06,.55-.46,1.27-1.21,2.18-.75,.9-1.47,1.52-2.16,1.85-.63,.3-1.17,.32-1.6,.04-.22-.14-.33-.27-.33-.41,0-.17,.41-.67,1.23-1.52,.82-.88,1.22-1.34,1.19-1.4-.03-.14-.81-.38-2.34-.74-1.01-.22-1.6-.27-1.77-.16-.22,.08-.56,.64-1.03,1.68-.47,1.04-.7,1.75-.7,2.14,0,.11,.11,.22,.33,.33,.71,.38,3.16,.87,7.34,1.46,4.18,.59,7.9,.98,11.16,1.17,1.53,.08,2.62,.19,3.27,.33,.64,.14,1.2,.37,1.66,.7,.49,.38,.73,.75,.7,1.11-.03,.27-.23,.43-.62,.47s-1.53,.05-3.45,.02c-2.41-.03-4.4-.11-5.98-.25s-3.75-.42-6.51-.86c-1.97-.27-3.3-.45-3.99-.53-.88-.11-1.56-.23-2.03-.37-.48-.14-1.28-.34-2.4-.62-1.4-.36-2.82-.78-4.27-1.27s-2.4-.89-2.83-1.19c-.6-.41-.82-.86-.66-1.36,.22-.71,.81-.99,1.77-.82,.38,.08,1.27,.36,2.67,.82,1.37,.44,2.1,.61,2.2,.51s.2-.47,.31-1.13c.22-1.4,.4-2.31,.53-2.73s.45-1.12,.95-2.08c.05-.14,.15-.33,.29-.58,.36-.66,.51-1.05,.47-1.17-.04-.12-.32-.21-.84-.27-.19,0-.34-.01-.45-.04-1.01-.11-1.58-.37-1.68-.78-.11-.38,0-.67,.31-.86,.32-.19,.97-.38,1.95-.58,.41-.05,.73-.11,.95-.16s.39-.11,.51-.17c.12-.05,.19-.12,.19-.18s-.03-.14-.08-.23c-.06-.14-.29-.35-.7-.64-.41-.29-.67-.43-.78-.43-.25,0-.51-.26-.78-.78-.41-.82-.82-3.68-1.23-8.59-.19-2.27-.44-3.93-.74-4.97-.08-.36-.1-.62-.04-.78,.16-.41,1.7-.77,4.6-1.07Zm-9.95,8.63c.22-.25,.58-.29,1.09-.14s.94,.42,1.29,.8c.49,.58,.78,1.23,.86,1.97,.05,.33,.01,.57-.12,.72s-.38,.23-.74,.23c-.27,0-.49-.04-.64-.12-.15-.08-.29-.24-.41-.47-.12-.23-.32-.51-.6-.84-.9-1.04-1.15-1.75-.74-2.14Zm1.07,7.15c.33-.22,.53-.01,.62,.62,.03,.19,.04,.4,.04,.62,.03,.66,.06,1.08,.1,1.25s.18,.4,.43,.68c.52,.6,.85,1.1,.99,1.48,.14,.38,.15,.92,.04,1.6-.22,1.84-.44,2.88-.66,3.12-.14,.14-.36,.23-.66,.27-.3,.04-.49,.01-.55-.08-.07-.1-.1-.71-.1-1.83v-1.64l-.66-1.23c-.44-.82-.68-1.36-.74-1.6-.19-.55-.11-1,.25-1.36,.17-.16,.33-.51,.49-1.03,.17-.52,.3-.81,.41-.86Zm11.01-9.12c-.52-.08-1.3-.14-2.34-.16l-1.6-.08v2.22l2.42-.08c1.51-.03,2.41-.07,2.71-.12,.3-.05,.45-.19,.45-.41,.03-.22-.01-.45-.12-.7-.08-.19-.22-.33-.41-.41-.19-.08-.56-.17-1.11-.25Zm.16,4.19c-2.44-.14-3.7-.14-3.78,0-.03,.08,.01,.47,.12,1.17s.21,1.12,.29,1.25c.05,.14,.33,.18,.82,.12,1.18-.11,2.07-.3,2.67-.58,.3-.14,.56-.41,.78-.82,.27-.6,.38-.94,.33-1.01s-.47-.12-1.23-.14Zm9.29-7.77c.16-.16,.29-.26,.39-.29,.1-.03,.27-.03,.51,0,.71,.06,1.07,.32,1.07,.78,0,.33-.37,.96-1.11,1.89-.27,.38-.41,.59-.41,.62,.05,.03,.68-.07,1.89-.29,2.71-.52,4.32-.73,4.81-.62,.25,.03,.47,.14,.68,.35s.33,.42,.39,.64c.03,.25,0,.53-.1,.84-.1,.32-.23,.51-.39,.6-.14,.08-.47,.12-.99,.12-.11,.03-.49,.06-1.15,.08-.66,.03-1.19,.06-1.6,.08-1.34,.08-2.44,.19-3.29,.33-.88,.11-1.36,.17-1.44,.17s-.34,.3-.78,.9c-.85,1.12-1.36,1.64-1.52,1.56-.11-.08-.14-.38-.08-.9s.17-1.07,.33-1.64c.27-.77,.73-1.75,1.36-2.94,.63-1.19,1.11-1.95,1.44-2.28Zm3.33,6.82c.36-.27,.64-.26,.86,.04,.19,.27,.14,.82-.16,1.64-.19,.55-.29,.95-.29,1.19,0,.79-.48,2.52-1.44,5.18-.36,.9-.52,1.48-.49,1.73,.11,.63,.88,1.86,2.32,3.7,1.44,1.84,2.62,3.1,3.55,3.78,.49,.36,.78,.62,.86,.78,.16,.27,.16,.53-.02,.76-.18,.23-.47,.38-.88,.43-.6,.08-1.52-.47-2.75-1.64-.77-.77-1.52-1.6-2.26-2.51-.71-.88-1.23-1.48-1.56-1.81-.3-.33-.51-.47-.62-.41-.11,.05-.37,.38-.78,.99-.55,.88-.99,1.31-1.32,1.31-.14,0-.29-.06-.45-.18-.16-.12-.27-.27-.33-.43-.06-.14-.01-.38,.12-.74,.14-.36,.58-1.37,1.32-3.04,.11-.27,.14-.53,.08-.76-.06-.23-.34-.9-.86-1.99-.85-1.81-1.27-2.99-1.27-3.53,0-.38,.13-.64,.39-.76,.26-.12,.55-.06,.88,.19,.3,.22,.84,1.01,1.6,2.38,.33,.6,.53,.9,.62,.9s.18-.15,.29-.45c.11-.3,.41-1.19,.9-2.67,.74-2.38,1.3-3.74,1.68-4.07Z"/><path class="d" d="M135.77,8.26c.63-.11,1.25-.15,1.85-.12,.9,.03,1.37,.16,1.4,.41,0,.14-.11,.31-.33,.53-.85,.79-2.88,1.44-6.08,1.93-.69,.08-1.7,.12-3.04,.1s-2.27-.08-2.79-.19c-.44-.08-.72-.18-.84-.31s-.16-.31-.1-.55c.08-.52,.29-.84,.64-.95s1.49-.23,3.43-.37h.04c2.77-.16,4.71-.33,5.84-.49Zm-9.25,17.22c.47-.33,1.05-.11,1.77,.66l.53,.58,1.15-.21c.77-.14,1.78-.21,3.04-.21s2.15,.08,2.67,.25c.88,.27,1.46,.66,1.77,1.15,.14,.17,.22,.33,.25,.49,.03,.17,.04,.55,.04,1.15,0,.88-.06,1.42-.18,1.62-.12,.21-.47,.6-1.05,1.17-.58,.58-1.07,1.03-1.48,1.36-.66,.47-1.53,.92-2.61,1.38s-1.98,.72-2.69,.8c-.55,.08-.95,.02-1.21-.19-.26-.21-.35-.51-.27-.92,.08-.38,.08-.75,0-1.09s-.3-.84-.66-1.5c-.68-1.26-1.1-2.36-1.23-3.29-.08-.63-.1-1.29-.06-1.99,.04-.7,.12-1.1,.23-1.21Zm7.15-11.55c.33-.03,.88-.04,1.64-.04l1.32-.04,.33,.37c.19,.22,.29,.38,.29,.47s-.07,.24-.21,.43c-.22,.27-1.27,.62-3.17,1.03-2.41,.52-4.09,.81-5.03,.86s-1.56-.11-1.83-.49c-.25-.3-.28-.6-.1-.9,.18-.3,.51-.52,1.01-.66,1.51-.47,3.42-.81,5.75-1.03Zm1.73,4.89c.33-.08,.63-.12,.9-.12,.19,0,.4,.04,.64,.12,.23,.08,.38,.17,.43,.25,.05,.25-.44,.67-1.48,1.27s-2.12,1.08-3.25,1.44c-1.92,.66-3.09,1.02-3.51,1.09-.43,.07-.91-.02-1.46-.27-.3-.16-.49-.31-.58-.45-.08-.14-.07-.31,.04-.53,.16-.33,.56-.62,1.19-.86,.63-.25,1.92-.62,3.86-1.11,1.95-.49,3.01-.77,3.21-.82Zm-6-15.41c.19-.16,.44-.23,.74-.21,.63,.08,1.83,.55,3.62,1.4,1.45,.68,2.18,1.16,2.18,1.44,0,.16-.07,.34-.21,.53-.14,.19-.27,.31-.41,.37-.27,.11-.96,.05-2.05-.18-1.1-.23-1.89-.47-2.38-.72-.52-.27-1-.68-1.44-1.23-.47-.58-.48-1.04-.04-1.4Zm4.27,25.03c-.52-.05-.82-.08-.9-.08-1.73,.25-2.82,.56-3.29,.95-.16,.16-.22,.37-.16,.62,.03,.27,.2,.71,.51,1.32,.31,.6,.54,.96,.68,1.07,.17,.11,.47,.08,.9-.08,.77-.25,1.62-.65,2.55-1.21,.93-.56,1.45-.98,1.56-1.25,.14-.33,.05-.61-.27-.84-.32-.23-.84-.39-1.58-.47ZM146.11,.41c.23-.16,.4-.25,.51-.25,.22,0,.45,.16,.68,.49,.23,.33,.42,.71,.56,1.15,.11,.33,.29,.52,.53,.58,.27,.08,1.31,.19,3.12,.33,2.38,.14,3.75,.33,4.11,.58,.68,.41,.56,.77-.37,1.07-.41,.11-1.55,.25-3.41,.41-1.4,.11-2.27,.23-2.63,.35-.36,.12-.53,.39-.53,.8,0,.19,.02,.31,.06,.35s.14,.09,.31,.14c.27,.03,1.07,.04,2.38,.04,2.05,0,3.16,.11,3.33,.33,.08,.11,.07,.32-.04,.62-.06,.27-.24,.47-.56,.6-.31,.12-1.01,.29-2.08,.51-1.92,.36-2.97,.67-3.16,.94-.08,.19-.15,.71-.21,1.56l-.08,1.27,3.25,.04c2.22,.06,3.44,.11,3.66,.17,.33,.08,.56,.2,.7,.35,.14,.15,.21,.41,.21,.76,0,.3-.01,.48-.04,.53-.03,.06-.14,.11-.33,.16-.22,.08-1.53,.19-3.95,.33-3.62,.16-6.33,.36-8.14,.58-.6,.06-1.28,.08-2.03,.08s-1.24-.05-1.46-.16c-.49-.19-.66-.58-.49-1.15,.14-.38,.38-.64,.74-.76,.36-.12,1.23-.24,2.63-.35,1.37-.08,2.23-.17,2.57-.27,.34-.1,.57-.27,.68-.51,.08-.17,.1-.53,.06-1.09s-.1-.91-.18-1.05c-.06-.14-.19-.23-.39-.27s-.79-.1-1.75-.18c-1.04-.11-1.71-.2-2.01-.27s-.51-.18-.62-.35c-.36-.55,.07-.99,1.27-1.31,.46-.14,1.08-.27,1.85-.41,.68-.11,1.12-.21,1.29-.29,.18-.08,.27-.21,.27-.37,0-.14-.05-.33-.14-.58-.1-.25-.17-.38-.23-.41-.06-.03-.48-.08-1.27-.16-2.27-.25-3.53-.6-3.78-1.07-.08-.16-.06-.38,.06-.66,.12-.27,.24-.45,.35-.53,.11-.08,.89-.15,2.34-.21l2.14-.04-.04-.62c-.05-.41-.08-.78-.08-1.11,0-.3,.12-.54,.35-.7Zm1.71,16.89c.66-.05,1.59-.05,2.79,.02,1.21,.07,1.92,.16,2.14,.27,.68,.36,1.18,1.15,1.48,2.38,.16,.6,.38,3,.66,7.19,.08,.99,.22,2.84,.41,5.55,.19,2.14,.29,3.4,.29,3.78l.04,.53h-1.23c-.77,0-1.18-.03-1.23-.08-.05-.03,.01-.22,.21-.58,.14-.25,.21-.45,.23-.6,.01-.15-.02-.51-.1-1.09-.03-.49-.1-1.17-.21-2.03-.11-.86-.21-1.64-.29-2.32s-.14-1.04-.16-1.07c-.06-.05-1.03,.1-2.92,.45s-3.32,.64-4.27,.86c-1.32,.36-2.05,.67-2.22,.95-.08,.17-.1,.6-.04,1.32,.05,.71,.17,1.38,.33,2.01l.25,1.03-.25,.25c-.27,.22-.59,.27-.95,.16-.36-.11-.62-.34-.78-.7-.22-.47-.37-2.22-.45-5.26-.08-3.1,.04-5.64,.37-7.64,.3-1.86,.58-3.03,.84-3.51,.26-.48,.83-.87,1.71-1.17,1.04-.33,2.16-.56,3.37-.7Zm3.78,8.34h-.66c-.11-.03-.6-.01-1.48,.04-1.34,.08-2.89,.29-4.64,.62l-1.15,.21-.04,.74c-.06,.41-.06,.69-.02,.84,.04,.15,.13,.25,.27,.29,.14,.04,.85-.02,2.14-.19,1.4-.19,2.62-.33,3.66-.41,1.48-.14,2.36-.27,2.65-.39,.29-.12,.39-.42,.31-.88-.05-.33-.15-.55-.29-.68-.14-.12-.38-.19-.74-.19Zm-.66-6.08c-.11-.03-.64-.05-1.6-.08-.96-.03-1.54-.03-1.73,0-.14,0-.75,.08-1.85,.25-1.04,.14-1.57,.21-1.58,.23s-.07,.55-.16,1.6c-.1,1.05-.14,1.66-.14,1.83,0,.11,.03,.17,.1,.18,.07,.01,.29,.02,.68,.02,.49,0,1.48-.04,2.96-.12,1.48-.11,2.51-.16,3.08-.16,.63,0,1.04-.04,1.23-.12,.14-.03,.21-.08,.23-.14s0-.24-.02-.51c-.08-.66-.25-1.3-.49-1.93-.25-.63-.48-.97-.7-1.03Z"/></g></g></g></svg>