<?xml version="1.0" encoding="UTF-8"?><svg xmlns="http://www.w3.org/2000/svg" viewBox="0 0 84.94 845.12"><defs><style>.d{fill:#231815;}</style></defs><g id="a"/><g id="b"><g id="c"><g><path class="d" d="M39.81,.96c3.52,23.73,5.87,47.62,7.01,71.58s1.09,47.97-.15,71.92-3.68,47.84-7.3,71.55-9.12,47.17-8.06,71.29c.53,12.02,2.22,23.95,4.11,35.82s3.93,24.12,5.9,36.18l1.47,8.97c.08,.51,3.01-.11,2.9-.78-1.95-11.96-3.91-23.92-5.86-35.88s-3.95-24-5.01-36.11c-1.05-11.95-.95-23.88,.41-35.8s3.68-23.77,5.64-35.63c3.92-23.66,6.65-47.52,8.19-71.45,1.54-23.93,1.89-47.95,1.04-71.92-.85-23.97-2.89-47.9-6.12-71.66-.4-2.96-.82-5.91-1.26-8.86-.07-.5-3,.09-2.9,.78h0Z"/><path class="d" d="M39.37,369.1c.81,5.47,.7,11.03-.38,16.46-.06,.3,.26,.33,.49,.35,1.87,.16,3.75,.25,5.63,.25,1.58,0,3.39-.05,4.69-1.07,1.14-.9,.82-2.62,.82-3.89l.02-5.63,.02-5.63c0-.63,.14-1.48-.16-2.07s-.95-.75-1.53-.86c-2.39-.44-4.86,.52-7.22,.04-.65-.13-1.44,.07-2.03,.37-.23,.12-1.01,.64-.35,.77,2.01,.41,4.09-.06,6.11-.1,1.05-.02,2.18,.02,2.27,1.3,.11,1.53,0,3.12,0,4.66l-.03,9.14c0,.35,.02,.71-.02,1.06,0,.09-.26,.97-.34,.88,.62-.17,.71-.24,.27-.18h-.3c-.41,0-.82,0-1.23,0-1.58-.02-3.17-.11-4.75-.25l.49,.35c1.09-5.52,1.25-11.17,.42-16.74-.09-.59-3.01,.02-2.9,.78h0Z"/><path class="d" d="M38.43,385.51c-4.8,13.16-19.94,17.37-30.26,25-3.08,2.28-5.83,4.92-8.03,8.06-.56,.8,.72,1.18,1.23,1.14,4.31-.35,8.49,1.58,11.2,4.91,.71,.87,2.55,.26,2.79-.75,.96-3.99,2.26-8.12,5.09-11.21s6.83-4.88,9.9-7.75c5.59-5.22,9.2-12.54,11.54-19.73,.22-.69-.88-.91-1.32-.87-.71,.05-1.39,.44-1.61,1.13-2.32,7.17-6.14,14.87-12.13,19.67-3.26,2.61-7.1,4.48-9.69,7.87s-3.75,7.19-4.7,11.14l2.79-.75c-3.29-4.03-8.41-6.08-13.57-5.66l1.23,1.14c3.97-5.66,10.07-9.3,15.97-12.65s11.59-6.49,16.29-11.21c2.61-2.63,4.76-5.71,6.03-9.2,.55-1.52-2.34-1.41-2.75-.27h0Z"/><path class="d" d="M46.6,386.14c3.78,.26,6.87,2.69,9.41,5.32s4.96,5.56,7.83,8c5.42,4.6,11.9,7.87,18.79,9.57l-.08-1.48c-4.42,3.16-8.04,7.29-10.56,12.12l2.83-.02c-.04-3.41-1-6.68-2.93-9.51-2.11-3.1-5.28-4.97-8.29-7.08-6.11-4.28-9.21-10.96-12.1-17.6-.51-1.18-3.38-.33-2.9,.78,2.71,6.25,5.6,12.72,11.02,17.11,2.84,2.3,6.26,3.9,8.64,6.74s3.6,6.25,3.64,9.83c.01,1.39,2.39,.82,2.83-.02,2.32-4.45,5.61-8.28,9.69-11.2,.57-.41,.8-1.26-.08-1.48-7.14-1.76-13.83-5.26-19.26-10.23s-9.51-12.22-17.44-12.77c-.64-.04-1.6,.21-1.9,.85s.25,1.04,.85,1.08h0Z"/><path class="d" d="M43.85,386.07c6.01,12.11,3.19,25.57,.09,38.07-1.61,6.51-3.39,13-4.41,19.63-1.1,7.11-1.02,14.3-.56,21.46,.5,7.9,1.41,15.77,1.58,23.69s-.21,15.29-.86,22.9c-1.31,15.29-3.66,30.46-5.21,45.73-3.11,30.64-4.03,61.47-3.63,92.25,.4,30.76,2.17,61.46,4.24,92.14,1.05,15.49,2.02,31,1.84,46.53-.09,7.64-.46,15.28-1.24,22.88-.76,7.44-1.87,14.86-2.02,22.35-.07,3.59,.11,7.18,.58,10.74,.17,1.27,3.08,.57,2.9-.78-2.02-15.09,1.72-30.47,2.42-45.56,.7-15.08,.09-30.19-.83-45.25-1.89-31.11-4.12-62.16-4.8-93.33-.67-30.78-.12-61.62,2.53-92.31,1.33-15.46,3.52-30.81,5.21-46.23,1.65-15.03,2.29-29.95,1.08-45.03-.62-7.7-1.39-15.42-1.15-23.16,.22-6.93,1.52-13.7,3.14-20.43,2.97-12.29,7.3-25.21,5.03-37.99-.56-3.18-1.6-6.22-3.04-9.11-.6-1.21-3.46-.35-2.9,.78h0Z"/><path class="d" d="M40.96,367.49c-4.31-5.1-11.4-5.49-17.58-5.94-7.2-.53-14.16-.08-21.06,2.17-.34,.11-1.54,.62-1.23,1.21,3.86,7.18,5.25,16.09,.56,23.25-.63,.97,1.1,1,1.58,.89,1.71-.38,3.54,.44,5.12,1.01s3.12,1.03,4.76,1.3c3.3,.54,6.64,.47,9.96,.28,6.3-.36,13.27-1.45,17.58-6.55,1.13-1.34-1.65-1.44-2.36-.61-4.2,4.96-11.19,5.32-17.23,5.48-3.12,.08-6.29-.09-9.29-1.02s-5.73-2.25-8.99-1.53l1.58,.89c4.85-7.42,3.63-16.7-.39-24.18l-1.23,1.21c6.27-2.04,12.52-2.51,19.06-2.04,5.75,.41,12.43,.59,16.47,5.35,.71,.84,3.49-.22,2.68-1.18h0Z"/><path class="d" d="M13.51,372.52c2.83,.6,5.7,.96,8.59,1.06,2.67,.09,5.3-.17,7.59-1.67,.54-.35,.69-1.12,.15-1.53-.61-.46-1.51-.21-2.08,.17-1.64,1.07-3.87,.94-5.74,.84-2.53-.14-5.04-.48-7.51-1.01-1.45-.31-2.91,1.74-.99,2.14h0Z"/><path class="d" d="M19.17,380.57c3.57,.29,7.1,1.11,10.7,.84,3.03-.22,6.14-1.24,8.36-3.39,.45-.44,.3-.91-.29-1.07-.64-.18-1.58,.09-2.05,.55-4.07,3.94-10.68,1.77-15.61,1.37-.61-.05-1.59,.23-1.91,.8-.34,.61,.29,.86,.8,.9h0Z"/><path class="d" d="M50.89,367.56c8.45-8.21,20.88-9.09,31.99-9.85l-1.06-1.4c-6.67,9.16-5.16,20.75-2.55,31.06l2.57-1.2c-4.39-2.49-9.46-2.21-14.3-1.68-2.77,.3-5.58,.67-8.37,.35s-5.51-1.5-8.12-2.63c-1.15-.5-3.36,1.15-1.69,1.88,2.39,1.04,4.79,2.05,7.36,2.54s5.41,.4,8.1,.14c4.89-.47,10.26-1.54,14.77,1.02,.76,.43,2.88,.03,2.57-1.2-2.43-9.59-4.2-20.92,2.06-29.51,.64-.87-.16-1.46-1.06-1.4-12.22,.83-25.44,2.1-34.68,11.08-.49,.48-.22,1.11,.36,1.33,.69,.26,1.55-.06,2.05-.55h0Z"/><path class="d" d="M60.77,369.32c-.12,.08-.25,.13-.39,.16-.2,.05-.19,.05,.02,0,.2-.03,.4-.08,.6-.11,.37-.07,.73-.13,1.1-.19,.71-.12,1.43-.23,2.15-.32s1.48-.17,2.22-.24c.66-.06,1.35-.12,1.98,.14,.58,.23,1.3,.05,1.87-.16,.11-.04,1.33-.65,.86-.83-1-.4-2.02-.43-3.09-.35-1.12,.08-2.23,.22-3.34,.37s-2.14,.31-3.2,.5c-1.2,.22-2.42,.45-3.38,1.24-.52,.43,.46,.5,.69,.49,.67-.05,1.41-.27,1.94-.69h0Z"/><path class="d" d="M59.36,377.93c2.91-1.73,6.13-2.47,9.5-2.07,.69,.08,1.58-.22,1.88-.9s-.27-1.2-.9-1.28c-4.06-.48-8.27,.37-11.79,2.46-.51,.31-1.12,.92-.67,1.55,.4,.57,1.43,.57,1.98,.25h0Z"/></g></g></g></svg>