<?xml version="1.0" encoding="UTF-8"?><svg xmlns="http://www.w3.org/2000/svg" viewBox="0 0 596.67 40.79"><defs><style>.d{fill:#231815;}</style></defs><g id="a"/><g id="b"><g id="c"><g><g><path class="d" d="M299.72,7.87c.48,3.21,.4,6.45-.23,9.63-.06,.3,.31,.36,.52,.38,1.1,.1,2.2,.15,3.31,.15,.92,0,2.02-.02,2.67-.77,.56-.64,.35-1.78,.35-2.57v-3.31c.01-1.1,.02-2.2,.02-3.31,0-.35,.04-.73-.15-1.03-.22-.34-.63-.46-1.01-.53-1.4-.25-2.86,.31-4.24,.03-.39-.08-.91,.04-1.2,.32-.25,.24-.21,.53,.16,.6,1.18,.24,2.4-.04,3.59-.05,.23,0,.48-.02,.71,.04,.47,.11,.46,.42,.46,.84,0,.9,0,1.79,0,2.69,0,1.79,.02,3.58-.02,5.37,0,.15,0,.31-.03,.47,0,.08-.03,.16-.07,.22-.07,.11-.04,.11,.1,0-.4,.08-.87,.02-1.28,.01-.9-.02-1.79-.07-2.69-.14l.52,.38c.64-3.25,.72-6.6,.23-9.88-.08-.57-1.8-.18-1.7,.46h0Z"/><path class="d" d="M299.13,17.73c-1.86,5.03-6.52,8.03-10.98,10.56-4.24,2.41-8.64,4.8-11.52,8.87-.16,.22,.43,.22,.48,.22,2.66-.19,5.16,1.01,6.84,3.04,.24,.29,1.56-.09,1.64-.44,.57-2.36,1.32-4.8,2.96-6.66s3.93-2.88,5.74-4.51c3.35-3.01,5.51-7.34,6.88-11.56,.12-.37-1.53-.17-1.68,.29-1.43,4.37-3.71,9.03-7.4,11.93-1.84,1.44-3.97,2.51-5.44,4.38s-2.19,4.15-2.74,6.42l1.64-.44c-1.91-2.3-4.76-3.39-7.72-3.17l.48,.22c5.85-8.26,18.75-9.31,22.5-19.43,.13-.35-1.51-.17-1.68,.29h0Z"/><path class="d" d="M303.97,17.88c2.32,.18,4.17,1.69,5.71,3.32s2.87,3.21,4.54,4.61c3.17,2.65,6.92,4.52,10.92,5.52l-.04-.85c-2.6,1.87-4.72,4.28-6.21,7.12l1.66-.02c-.03-1.95-.55-3.8-1.62-5.44-1.2-1.83-3.01-2.94-4.77-4.16-3.7-2.56-5.57-6.48-7.31-10.49-.3-.68-1.98-.18-1.7,.46,1.56,3.6,3.23,7.35,6.32,9.92,1.64,1.36,3.64,2.29,5.07,3.9s2.27,3.78,2.31,5.98c.01,.8,1.41,.46,1.66-.02,1.38-2.62,3.29-4.86,5.69-6.59,.33-.24,.47-.72-.04-.85-4.36-1.08-8.42-3.25-11.68-6.36-2.98-2.84-5.38-6.81-9.88-7.16-.75-.06-1.77,1.02-.62,1.11h0Z"/><path class="d" d="M300.66,6.93c-2.57-2.98-6.68-3.21-10.33-3.48-4.24-.31-8.31-.03-12.38,1.28-.19,.06-.91,.35-.73,.68,2.27,4.25,3.07,9.43,.33,13.67-.37,.57,.65,.54,.92,.49,1.18-.24,2.42,.41,3.51,.78,.93,.32,1.87,.53,2.85,.66,1.89,.25,3.81,.18,5.71,.06,3.59-.23,7.47-.95,9.93-3.82,.66-.77-.98-.79-1.38-.32-2.57,2.99-6.82,3.19-10.49,3.23-1.91,.02-3.78-.15-5.59-.78-1.63-.56-3.04-1.07-4.78-.73l.92,.49c2.84-4.39,2.14-9.77-.22-14.2l-.73,.68c3.64-1.18,7.26-1.47,11.06-1.21,3.45,.24,7.38,.34,9.82,3.17,.41,.47,2.04-.15,1.58-.68h0Z"/><path class="d" d="M284.53,9.91c1.69,.36,3.4,.56,5.13,.62,1.55,.05,3.06-.12,4.38-.98,.32-.21,.4-.7,.07-.94-.37-.28-.88-.14-1.23,.09-.96,.63-2.28,.55-3.37,.49-1.49-.08-2.96-.28-4.41-.59-.4-.09-.94,.15-1.1,.54-.17,.42,.17,.7,.54,.78h0Z"/><path class="d" d="M287.88,14.71c2.1,.17,4.18,.66,6.29,.51,1.81-.13,3.58-.74,4.9-2.02,.29-.28,.12-.66-.21-.79-.41-.16-.91,.03-1.2,.32-2.37,2.29-6.32,1.02-9.18,.79-.39-.03-.93,.12-1.11,.51s.15,.66,.51,.69h0Z"/><path class="d" d="M306.49,6.96c4.98-4.82,12.25-5.34,18.8-5.79l-.62-.81c-3.91,5.4-3.03,12.17-1.5,18.25l1.51-.7c-2.53-1.41-5.42-1.3-8.21-1-1.69,.18-3.41,.42-5.11,.22s-3.24-.88-4.77-1.54c-.67-.29-1.98,.67-1,1.09,1.38,.6,2.76,1.19,4.25,1.48s3.04,.26,4.56,.12c2.98-.27,6.21-.97,8.97,.58,.44,.25,1.69,.02,1.51-.7-1.43-5.66-2.46-12.27,1.21-17.35,.37-.51-.09-.85-.62-.81-7.19,.49-14.94,1.24-20.38,6.51-.29,.28-.12,.64,.21,.77,.4,.16,.92-.04,1.2-.32h0Z"/><path class="d" d="M312.1,8.48c.15-.13,.06-.03,.02-.02,.11-.04,.23-.05,.34-.08,.23-.05,.47-.09,.7-.13,.45-.08,.9-.14,1.36-.2s.95-.11,1.42-.15c.41-.04,.79-.08,1.18,.08s.94,.01,1.2-.32,.15-.73-.24-.88c-1.1-.44-2.41-.17-3.55-.02-.63,.08-1.26,.18-1.88,.29s-1.21,.19-1.7,.59c-.29,.24-.42,.67-.08,.93s.91,.17,1.22-.09h0Z"/><path class="d" d="M311.62,12.82c1.64-.98,3.47-1.33,5.4-1.1,.37,.04,.92-.14,1.12-.48,.21-.37-.19-.53-.48-.56-2.47-.29-4.99,.3-7.12,1.56-.26,.16-.48,.53-.13,.73,.36,.2,.88,.05,1.21-.14h0Z"/></g><path class="d" d="M324.22,15.18c17.03-7.13,35.96-5.65,53.91-4.02,9.59,.87,19.2,1.81,28.84,1.62s19.1-2.09,28.7-2.89c17.52-1.45,34.95,2.13,52.05,5.46s33.88,6.49,51.05,4.82c8.58-.84,16.75-3.2,24.81-6.19,8.07-2.99,16.12-6.43,24.69-7.75,2.13-.33,4.26-.5,6.41-.53,.56,0,1.63-.2,1.92-.76s-.25-.73-.75-.72c-17.65,.21-32.86,10.49-49.9,13.59s-34.88,.22-51.91-3.03-34.54-7.17-52.16-6.64c-9.63,.29-19.07,2.33-28.67,2.96s-19.72-.14-29.53-1.03c-18.07-1.63-36.81-3.59-54.46,1.9-2.06,.64-4.09,1.38-6.09,2.21-.4,.17-1.13,.53-.8,1.04,.29,.46,1.56,.1,1.9-.04h0Z"/><path class="d" d="M1.17,5.85c9.67-2.02,19.48,.11,28.91,2.37s18.71,4.3,28.37,4.94,19.41,.03,29.04-1.42,19.5-3.48,29.3-2.17c9.32,1.25,17.38,6.27,26.28,8.91,8.11,2.4,16.66,2.79,25.06,2.2,17.47-1.22,34.5-6.54,52.08-6.51,4.48,0,8.94,.4,13.34,1.24,4.79,.92,9.51,2.18,14.34,2.88,8.56,1.23,17.26,.09,25.22-3.32,2-.86,3.92-1.87,5.78-2.99,.52-.32,.3-.58-.18-.67-.64-.11-1.51,.22-2.05,.55-7.78,4.72-16.86,6.52-25.87,5.35-4.84-.63-9.56-1.91-14.35-2.85-4.2-.82-8.44-1.3-12.72-1.39-17.27-.37-34.01,4.57-51.09,6.23-8.55,.83-17.25,.77-25.61-1.43s-16.54-7.21-25.42-8.95-18.67-.51-27.85,.91c-9.71,1.51-19.32,2.73-29.16,2.42s-19.31-1.98-28.81-4.27C26.81,5.71,17.7,3.39,8.4,3.86c-2.25,.11-4.5,.41-6.7,.87C1.36,4.8,0,5.07,0,5.54c0,.5,.84,.38,1.17,.31h0Z"/></g></g></g></svg>