<?xml version="1.0" encoding="UTF-8"?><svg xmlns="http://www.w3.org/2000/svg" viewBox="0 0 45.19 46.28"><defs><style>.d{fill:#b0891d;}</style></defs><g id="a"/><g id="b"><g id="c"><g><path class="d" d="M11.64,1.77c-1.13,5.97-2.81,11.81-5.04,17.46-.41,1.04,1.93,.77,2.36,.69,.95-.17,2.95-.58,3.38-1.66,2.22-5.65,3.91-11.49,5.04-17.46C17.57-.26,15.59,0,15.02,.11c-.76,.14-1.52,.35-2.21,.7-.36,.18-1.09,.52-1.17,.96h0Z"/><path class="d" d="M34.89,3.66c-2.35,4.78-4.28,9.75-5.74,14.87-.32,1.13,1.83,.96,2.4,.86,.75-.13,1.53-.33,2.2-.71,.41-.23,1.01-.55,1.15-1.04,1.47-5.12,3.39-10.09,5.74-14.87,.19-.39-.24-.69-.53-.8-.54-.21-1.33-.15-1.87-.06-1.13,.19-2.79,.62-3.35,1.75h0Z"/><path class="d" d="M0,28.48c.59,7.1,5.52,13.41,12,16.19,7.87,3.38,17.2,1.09,23.88-3.83,3.72-2.75,6.66-6.31,9.08-10.22,.78-1.25-.7-2.4-1.8-2.55-1.54-.22-2.97,.52-3.77,1.8-4.18,6.72-11.4,12.78-19.79,11.88-7.55-.8-13.19-7.44-13.81-14.84-.12-1.45-2.46-1.56-3.45-1.29C.97,26.01-.11,27.01,0,28.48H0Z"/></g></g></g></svg>