<?xml version="1.0" encoding="UTF-8"?><svg xmlns="http://www.w3.org/2000/svg" viewBox="0 0 425.16 65.82"><defs><style>.d{fill:#b0891d;opacity:.44;}.e{stroke:#231815;stroke-miterlimit:10;}.e,.f{fill:#231815;}</style></defs><g id="a"/><g id="b"><g id="c"><g><path class="d" d="M372.56,57c-.9-2.01-2.17-3.63-3.81-4.86-4.47-4.01-9.71-6.95-14.97-8.88-5.33-1.96-10.78-3.39-16.37-3.28-20.64,.4-41.28-.09-61.9-.96-5.18-.22-10.36-.47-15.55-.73-20.92-1.07-41.84-2.32-62.76-3.31-20.46-.96-40.93-1.64-61.4-1.51-11.56,.07-23.12,.41-34.68,1.08-1.91-.15-3.69,.28-5.35,1.3-1.33,.34-2.27,1.32-2.83,2.95-.28,1.73,.05,3.21,.99,4.43,.9,2.01,2.17,3.63,3.81,4.86,4.47,4.01,9.71,6.95,14.97,8.88,5.27,1.93,10.84,3.6,16.37,3.28,27.01-1.58,54.06-1.27,81.08-.22,6.71,.26,13.42,.57,20.13,.9,16.6,.85,33.2,1.83,49.8,2.67,18.65,.95,37.31,1.8,55.98,2.1,9.77,.16,19.54,.16,29.31-.02,1.91,.15,3.69-.28,5.35-1.3,1.33-.34,2.27-1.32,2.83-2.95,.28-1.73-.05-3.21-.99-4.43Z"/><g><g><path class="e" d="M127.67,9.73c.3-.12,.56-.08,.77,.11,.21,.2,.43,.67,.66,1.42,.23,.75,.46,1.75,.7,2.98,.24,1.24,.53,2.94,.86,5.11,.27,1.78,.44,2.71,.5,2.78,.06,.08,.59,.07,1.6-.02s1.89-.21,2.64-.36c1.24-.24,1.99-.38,2.26-.41,.27-.03,.56,0,.86,.09,.3,.06,.57,.17,.79,.34,.23,.17,.34,.32,.34,.47,0,.18-.07,.39-.2,.63-.14,.24-.28,.39-.43,.45-.42,.21-1.69,.5-3.8,.86-2.05,.33-3.13,.54-3.25,.63-.24,.18,.27,2.23,1.54,6.15,.33,1.08,.59,1.64,.77,1.67,.03,0,.08-.01,.14-.04,.09-.09,.47-.72,1.13-1.9,.75-1.33,1.32-2.15,1.69-2.49,.38-.33,.96-.51,1.74-.54,.51,0,.84,.09,.99,.27,.18,.15,.24,.36,.18,.63-.12,.6-.86,1.78-2.21,3.53-1.21,1.6-1.94,2.7-2.21,3.3l-.27,.59,.23,.45c.18,.33,.32,.66,.41,.99,.15,.51,.68,1.42,1.58,2.71,.9,1.3,1.84,2.49,2.8,3.57,1.84,2.05,3.01,3.44,3.53,4.16s.68,1.24,.5,1.54c-.06,.15-.2,.23-.41,.25-.21,.02-.42-.05-.63-.2-.66-.45-1.88-1.63-3.66-3.53-1.96-2.05-3.5-3.95-4.61-5.69-.69-1.08-1.1-1.66-1.22-1.72-.06-.03-.24,.11-.54,.41s-.93,.99-1.9,2.08c-2.05,2.29-3.41,3.25-4.07,2.89-.57-.33-.33-1.08,.72-2.26,1.54-1.69,2.73-3.18,3.57-4.47,.3-.42,.49-.72,.57-.9,.07-.18,.11-.41,.11-.68,0-.39-.08-.86-.25-1.4-.17-.54-.64-2.02-1.42-4.43-.84-2.65-1.3-4.1-1.36-4.34l-.09-.41-2.94,.04c-3.5,.12-5.36,.27-5.6,.45-.09,.09-.12,.89-.09,2.4,.06,1.51,.14,2.29,.23,2.35,.09,.06,.32,.02,.68-.14,1.27-.51,2.02-.71,2.26-.59,.21,.09,.32,.2,.32,.34s-.45,.64-1.36,1.51c-.9,.9-1.4,1.46-1.49,1.67-.18,.3-.38,1.9-.59,4.79-.36,4.55-.68,7.1-.95,7.64-.09,.15-.29,.27-.59,.36-.57,.18-.98,0-1.22-.54-.12-.24-.12-.68,0-1.31,.12-.66,.23-1.52,.32-2.58,.06-1.05,.09-2.26,.09-3.62s-.03-2.03-.09-2.03-.29,.17-.68,.5c-1.72,1.45-2.94,2.4-3.66,2.85-.72,.45-1.3,.62-1.72,.5-.21-.06-.41-.19-.59-.38-.18-.2-.27-.4-.27-.61,0-.18,.18-.44,.54-.77,.36-.33,1.12-.93,2.26-1.81,1.48-1.08,2.55-1.91,3.21-2.49l1.04-.81v-.81c0-.75-.09-1.89-.27-3.41s-.33-2.45-.45-2.78c-.06-.15-.18-.27-.36-.36-.15-.06-1.19-.12-3.12-.18-1.9-.09-2.97-.18-3.21-.27-.63-.24-.68-.63-.14-1.18,.45-.48,1.85-.86,4.2-1.13,1.54-.21,2.35-.33,2.44-.36,.12-.03,.29-.3,.5-.81,.15-.39,.42-.81,.81-1.27,.39-.45,.66-.68,.81-.68,.12,0,.27,.09,.45,.27,.18,.18,.3,.64,.36,1.38,.06,.74,.12,1.14,.18,1.2,.15,.12,2.05,.15,5.69,.09h2.35l-.04-.63c-.18-1.42-.57-3.89-1.18-7.41-.48-2.86-.41-4.41,.23-4.66Zm-4.11,5.06c.12-.12,.44-.05,.95,.2,.51,.26,.84,.52,.99,.79,.09,.18,.06,.39-.09,.63-.21,.27-.44,.47-.68,.59-.42,.21-.97,.35-1.65,.41-.68,.06-1.98,.09-3.91,.09-1.39,0-2.43,0-3.12-.02-.69-.01-1.27-.07-1.72-.18-.45-.11-.74-.23-.86-.38-.12-.15-.21-.38-.27-.68-.03-.3,.04-.53,.23-.68,.21-.15,.59-.25,1.13-.29,.54-.04,2.08-.13,4.61-.25,2.89-.12,4.35-.2,4.38-.23Zm11.8-1.85c.15-.18,.36-.24,.63-.18,.69,.15,1.61,.51,2.76,1.08,.78,.42,1.62,1.19,2.51,2.3,.89,1.12,1.39,2.03,1.51,2.76,.03,.21,0,.4-.11,.56-.11,.17-.25,.25-.43,.25-.36,0-1.02-.44-1.99-1.31-.66-.57-1.37-1.16-2.12-1.76-1.3-1.02-2.19-1.91-2.67-2.67-.21-.3-.32-.51-.32-.63s.08-.26,.23-.41Z"/><path class="e" d="M162.33,13.34c.18-.09,.45-.14,.81-.16s.63,.02,.81,.11c.21,.12,.26,.38,.14,.77-.12,.39-.36,.75-.72,1.08-.3,.27-.51,.41-.63,.41s-.35,.28-.68,.84c-.33,.56-.59,1.12-.77,1.69-.6,1.81-.83,8.24-.68,19.3,.09,4.58,.11,6.94,.07,7.07-.04,.14-.21,.25-.5,.34-.29,.09-.54,.1-.75,.04-.36-.12-.6-.65-.72-1.58-.06-.63-.11-4.05-.14-10.26-.03-6.15-.08-9.61-.14-10.4l-.04-1.04-.77,.77c-.81,.78-1.46,1.04-1.94,.77-.21-.12-.38-.29-.52-.5-.13-.21-.18-.39-.13-.54,.04-.15,.38-.62,1.02-1.4,.18-.21,.77-.93,1.76-2.17,.54-.66,1.05-1.39,1.54-2.17,.51-.75,.86-1.22,1.04-1.4,.81-.81,1.46-1.34,1.94-1.58Zm5.74,.36c.45-.06,1.21-.07,2.28-.05,1.07,.03,1.72,.1,1.97,.2,.24,.11,.54,.38,.9,.84,.36,.45,.57,.83,.63,1.13,.27,1.02,.39,3.25,.36,6.69-.06,2.08-.17,3.38-.32,3.89-.21,.72-.48,1.24-.81,1.56-.33,.32-.78,.49-1.36,.52-.42,.03-1.16,.27-2.21,.72-1.06,.48-1.68,.81-1.88,.99-.2,.18-.35,.6-.47,1.27-.36,1.63-.56,4.19-.59,7.68-.03,2.62,.01,4.16,.13,4.61,.21,.87,.15,1.49-.18,1.85-.24,.21-.48,.3-.72,.27-.66-.12-1.07-.98-1.22-2.58-.21-2.41-.11-5.79,.32-10.12,.21-2.2,.42-5.06,.63-8.59,.06-1.08,.08-1.75,.07-2.01-.02-.26-.08-.53-.2-.84-.09-.3-.14-.51-.16-.63-.02-.12,.04-.39,.16-.81,.15-.57,.26-1.48,.32-2.71,.12-1.87,.35-2.94,.68-3.21,.33-.3,.89-.53,1.67-.68Zm2.89,8.18c-.36-.18-.63-.27-.81-.27s-.54,.12-1.08,.36c-.72,.3-1.15,.57-1.27,.81-.12,.24-.18,.93-.18,2.08,0,1.27,.07,1.94,.2,2.03,.14,.09,.33,.11,.59,.04,.26-.06,.85-.3,1.79-.72l1.54-.68v-1.31c0-.81-.05-1.37-.14-1.67-.09-.3-.3-.53-.63-.68Zm-.09-5.47c-.12-.15-.59-.23-1.4-.23h-1.22l-.09,1.4c-.09,.9-.12,1.4-.09,1.49,.06,.03,.44-.03,1.13-.18,.69-.15,1.19-.27,1.49-.36,.48-.21,.65-.66,.5-1.36-.09-.36-.2-.62-.32-.77Zm11.89-4.07c.45-.06,1.29-.06,2.51,0,1.22,.06,2.09,.14,2.6,.23,.96,.18,1.69,.45,2.17,.81,.27,.21,.62,.87,1.04,1.99l.23,.72-.18,3.66c-.18,2.26-.29,5.11-.34,8.54-.04,3.44-.04,6.22,.02,8.36,.09,1.96,.09,4.07,0,6.33-.06,1.84-.12,2.9-.18,3.19-.06,.29-.35,.72-.86,1.29-.27,.33-.47,.54-.59,.63s-.27,.1-.45,.04c-.18-.06-.29-.23-.34-.5-.05-.27-.02-.81,.07-1.63,.36-3.01,.39-6.49,.09-10.44-.21-2.56-.32-5.47-.32-8.72-.03-2.62-.06-4.97-.09-7.05,.03-1.96,0-3.13-.09-3.53-.09-.39-.33-.69-.72-.9-.75-.42-1.84-.63-3.25-.63-1.03-.03-1.92,.05-2.69,.23s-1.23,.42-1.38,.72c-.06,.18-.09,.43-.09,.75s.03,.54,.09,.66c.06,.12,.96,.22,2.71,.29,1.75,.08,2.71,.2,2.89,.38,.18,.09,.34,.27,.47,.54,.14,.27,.19,.51,.16,.72,0,.24-.11,.47-.34,.7s-.49,.37-.79,.43c-.48,.15-2.12,.23-4.93,.23-.09,0-.16,.45-.2,1.36-.04,.9-.04,1.66,.02,2.26,.03,.27,.06,.45,.09,.52,.03,.08,.14,.13,.32,.16,.21,.03,.75,0,1.63-.09,.81-.12,1.66-.17,2.53-.14,.63,.03,1.02,.06,1.17,.09,.15,.03,.33,.12,.54,.27,.93,.69,1.07,1.36,.41,1.99-.21,.24-.42,.37-.61,.38-.2,.02-.56-.05-1.11-.2-.48-.12-1.07-.14-1.76-.05-1.24,.18-2.4,.28-3.48,.29-1.08,.02-1.69-.05-1.81-.2-.15-.18-.23-1.2-.23-3.05s.08-3.97,.23-6.35c.15-1.78,.26-2.8,.32-3.07,.06-.3,.24-.54,.54-.72,.42-.36,1.02-.69,1.79-.99,.77-.3,1.5-.47,2.19-.5Z"/><path class="e" d="M214.53,31.24c.21-.21,.47-.32,.77-.32,.51,0,.86,.21,1.04,.63,.12,.36-.03,.65-.45,.86-.18,.09-.33,.26-.45,.5-.12,.18-.27,.64-.45,1.38-.18,.74-.24,1.17-.18,1.29,.03,.09,1.38,.23,4.07,.41,.87,.06,1.44,.07,1.7,.02,.25-.04,.38-.16,.38-.34,0-.27,.12-.83,.36-1.67,.24-.84,.45-1.45,.63-1.81,.24-.51,.46-.84,.66-.97,.2-.14,.38-.08,.57,.16,.36,.39,.47,1.45,.32,3.16-.09,.99-.12,1.51-.09,1.54,.09,.06,2.42-.05,7.01-.32,1.42-.09,2.24-.12,2.49-.09,.18,.06,.37,.22,.57,.47,.2,.26,.32,.52,.36,.79,.04,.27-.05,.53-.29,.77-.24,.24-.69,.4-1.36,.47-.66,.08-2.98,.22-6.96,.43-1.66,.06-2.5,.11-2.53,.14,0,.03-.14,.69-.41,1.99-.48,2.5-.68,3.95-.59,4.34,.09,.36,.8,.6,2.12,.72,.57,.06,.96,.15,1.17,.27,.21,.12,.32,.3,.32,.54,0,.21-.11,.41-.34,.61-.23,.2-.47,.31-.75,.34-.24,.06-.72,.05-1.45-.04-.57-.06-.94-.07-1.11-.02-.17,.05-.55,.31-1.15,.79-.3,.24-.53,.36-.68,.36-.12,0-.33-.18-.63-.54-.27-.33-.57-.56-.88-.7s-.91-.29-1.79-.47c-1.99-.36-3.41-.76-4.27-1.2-.86-.44-1.39-1.02-1.6-1.74-.27-.9-.27-2.05,0-3.44,.18-.99,.18-1.52,0-1.58-.09-.03-1.12-.1-3.07-.23-1.81-.09-2.99-.18-3.55-.27s-.94-.24-1.15-.45c-.21-.21-.32-.48-.32-.81,0-.39,.08-.66,.25-.81,.17-.15,.52-.26,1.06-.32,.48-.03,1.93-.07,4.34-.14,2.29-.06,3.53-.14,3.71-.23,.15-.06,.57-.77,1.26-2.12,.69-1.33,1.15-2.11,1.36-2.35Zm4.7-16.54c.24-.24,.57-.29,.99-.14,.27,.12,.48,.63,.63,1.54,.03,.09,.05,.21,.05,.36,.09,.48,.23,.77,.41,.86s.77,.14,1.76,.14c.33,.03,.59,.04,.77,.04,2.35,.06,4.23,.27,5.65,.63,1.02,.27,1.67,.5,1.94,.68,.27,.18,.59,.62,.95,1.31,.15,.33,.23,.84,.23,1.51s-.08,1.32-.23,1.92c-.18,.63-.5,1.39-.95,2.28-.45,.89-.84,1.53-1.17,1.92-.51,.57-1.12,.95-1.83,1.13-.71,.18-2.21,.36-4.5,.54-4.07,.3-7.94,.47-11.62,.5h-3.57l-.36-.36c-.42-.48-.82-1.58-1.2-3.3-.38-1.72-.56-3.33-.56-4.84,0-.72,.04-1.23,.13-1.54,.09-.3,.33-.65,.72-1.04l.59-.68,1.49-.09c2.41-.12,3.62-.38,3.62-.77,0-.09-.06-.35-.18-.77-.12-.45-.12-.77,0-.95,.18-.27,.63-.41,1.36-.41,.33,0,.57,.07,.72,.2s.24,.35,.27,.66c.03,.09,.05,.2,.07,.32,.02,.12,.04,.24,.07,.36,.03,.12,.04,.21,.04,.27l.04,.36,1.31-.05c.9-.06,1.42-.1,1.54-.14,.12-.06,.21-.32,.27-.77,.21-.99,.39-1.57,.54-1.72Zm-5.83,6.37l-.14-.54h-.99c-2.23,.03-3.41,.35-3.53,.95-.06,.18-.05,.69,.02,1.51,.08,.83,.19,1.57,.34,2.24,.24,1.11,.53,1.76,.86,1.94,.42,.18,1.43,.2,3.03,.05l.72-.09v-1.4c0-1.99-.11-3.54-.32-4.66Zm-1.49-10.08c1.17-.09,3.64-.1,7.41-.02,3.77,.08,6.03,.17,6.78,.29,.6,.06,.99,.15,1.17,.27,.3,.21,.44,.5,.41,.88-.03,.38-.21,.66-.54,.84-.21,.12-2.86,.18-7.96,.18s-7.79-.05-8.09-.14l-.45-.18-.05-.99-.04-.99,.36-.05c.18-.03,.51-.06,1-.09Zm4.84,27.62c-2.26-.12-3.45-.12-3.57,0-.09,.15-.21,.61-.36,1.38-.15,.77-.24,1.39-.27,1.88,0,.66,.09,1.1,.27,1.31,.75,.78,2.29,1.33,4.61,1.63,1.14,.15,1.76,.23,1.85,.23,.15,0,.38-.87,.68-2.6,.3-1.73,.39-2.79,.27-3.19-.03-.21-.27-.35-.72-.43-.45-.07-1.37-.14-2.76-.2Zm1.49-17.67v-.77h-1.08c-.75,0-1.15,.03-1.17,.09-.09,.09-.2,1.24-.34,3.46-.14,2.21-.18,3.37-.14,3.46s.34,.12,.88,.09c.69-.06,1.13-.3,1.31-.72,.18-.42,.33-1.48,.45-3.16,.06-1.24,.09-2.05,.09-2.44Zm8.09-.77c-.75-.21-2.14-.24-4.16-.09-.9,.03-1.4,.12-1.49,.27-.09,.12-.27,1.09-.54,2.92-.27,1.82-.41,3.02-.41,3.59v.45l.54-.09c.48-.03,1.58-.11,3.3-.23,2.86-.18,4.41-.38,4.66-.59,.21-.15,.49-.51,.84-1.08,.35-.57,.57-1.02,.66-1.36,.15-.42,.23-.9,.23-1.45,0-.39-.02-.66-.04-.79-.03-.14-.12-.28-.27-.43-.27-.27-.84-.51-1.72-.72-.57-.15-1.1-.29-1.58-.41Z"/><path class="e" d="M245.13,38.65c.15-.18,.29-.27,.41-.27s.36,.08,.72,.23c.33,.18,.56,.35,.7,.5,.14,.15,.32,.45,.57,.9,.72,1.27,1.69,2.65,2.89,4.16,.72,.87,1.14,1.42,1.27,1.65,.12,.23,.12,.44,0,.66-.42,.6-1.15,.57-2.17-.09-.81-.51-1.75-1.36-2.8-2.53-.93-1.08-1.54-2.1-1.83-3.05s-.2-1.66,.25-2.15Zm9.45-25.45c.39-.33,.65-.5,.77-.5s.31,.09,.56,.27,.44,.38,.57,.59c.3,.45,.27,.8-.09,1.04-.45,.27-1.32,1.02-2.6,2.24-1.28,1.22-1.92,1.89-1.92,2.01,0,.09,.81,.16,2.42,.2,1.61,.04,2.57,.14,2.87,.29,.57,.27,.83,.8,.77,1.58-.03,.27-.11,.54-.25,.81-.14,.27-.5,.84-1.11,1.72-1.12,1.66-1.97,2.97-2.58,3.93-.24,.39-.89,1.4-1.94,3.03-.96,1.48-1.04,2.03-.23,1.67,.33-.15,.81-.45,1.45-.9,.54-.42,.89-.75,1.04-.97,.15-.23,.21-.52,.18-.88-.03-.27-.03-.45,0-.54s.17-.26,.41-.5c.45-.45,.95-.54,1.49-.27,.21,.12,.45,.15,.72,.09,.36-.06,.68,.04,.97,.32,.29,.27,.43,.62,.43,1.04,0,.66,.26,1.48,.77,2.44,.39,.75,.39,1.31,0,1.67-.33,.3-.66,.38-.99,.25-.33-.14-.86-.53-1.58-1.2l-1.04-.99-.68,.68c-1.36,1.33-2.55,2.05-3.57,2.17-.6,.06-1.19-.07-1.76-.38-.57-.32-.86-.68-.86-1.11,0-.6,.99-2.4,2.98-5.38,1.84-2.74,2.88-4.55,3.12-5.42,.09-.3,.05-.49-.11-.56-.17-.07-.63-.11-1.38-.11-1.99-.03-3.25-.21-3.8-.54-.69-.42-1.04-.86-1.04-1.31,0-.18,.12-.41,.36-.68,.3-.39,1.23-1.39,2.8-3.01,1.57-1.61,2.52-2.54,2.85-2.78Zm-3.53,24.77c.24-.12,.42-.18,.54-.18,.27,0,.62,.17,1.06,.5,.44,.33,.73,.66,.88,.99,.18,.36,.54,.9,1.08,1.63,.69,.96,1.07,1.56,1.13,1.79,.06,.23-.12,.43-.54,.61-.36,.18-.65,.26-.86,.23-.21-.03-.53-.18-.95-.45-.66-.42-1.36-1.07-2.08-1.94-.72-.87-1.08-1.51-1.08-1.9,0-.21,.08-.44,.25-.7,.17-.26,.35-.44,.57-.56Zm3.89-.68c.48-.24,1.1-.18,1.85,.18,.66,.3,1.32,.79,1.97,1.47,.65,.68,.93,1.17,.84,1.47-.06,.27-.17,.49-.34,.66s-.35,.25-.57,.25c-.24,0-.65-.14-1.22-.43-.57-.29-1.1-.61-1.58-.97-1.66-1.24-1.97-2.11-.95-2.62Zm14.28-24.9c.12-.12,.48-.15,1.08-.09,.72,.06,1.15,.18,1.29,.36s.25,.75,.34,1.72c.09,.78,.18,1.37,.27,1.76l.09,.54,1.4-.09c.75-.03,2.17-.06,4.25-.09,1.93,0,3.03,.06,3.3,.18,.57,.3,.81,.84,.72,1.63l-.09,.59-2.4,.04c-4.13,0-6.36,.11-6.69,.32-.33,.18-.59,.93-.77,2.26-.39,2.77-.63,4.26-.72,4.47,0,.03,.04,.05,.11,.07,.07,.02,.22,.03,.43,.05,.21,.02,.49,.03,.84,.04,.35,.02,.81,.02,1.38,.02,1.87,.03,2.89,.09,3.07,.18,.15,.09,.27,.27,.36,.54,.09,.27,.1,.51,.04,.72-.09,.51-.53,.86-1.31,1.04-.45,.09-2.03,.28-4.72,.56-2.7,.29-4.32,.43-4.86,.43-1.51,.03-2.28-.45-2.3-1.45,0-.33,.16-.56,.47-.7s1.3-.35,2.96-.66c.75-.12,1.16-.2,1.22-.23,.06-.03,.17-.59,.32-1.69,.15-1.1,.27-2.13,.36-3.1,.09-.96,.04-1.54-.14-1.74-.18-.2-.75-.23-1.72-.11-3.34,.42-5.32,.38-5.92-.14-.24-.18-.36-.44-.36-.77,0-.3,.03-.57,.09-.81,.06-.36,.27-.58,.63-.66,.36-.08,1.42-.13,3.16-.16,2.2-.09,3.44-.15,3.71-.18l.5-.09-.09-1.04c-.06-.72-.17-1.46-.32-2.21-.12-.66-.18-1.05-.18-1.18s.06-.24,.18-.36Zm.81,22.24c.27-.06,.87-.09,1.79-.09s1.77,.03,2.55,.09c1.69,.15,2.91,.41,3.66,.79,.75,.38,1.37,1.02,1.85,1.92,.24,.48,.36,1.07,.36,1.76s-.11,1.21-.32,1.63c-.24,.42-.62,.9-1.13,1.45-.96,1.05-1.45,1.81-1.45,2.26,0,.21-.12,.42-.36,.63-.24,.21-.53,.36-.86,.45-.42,.12-1.25,.26-2.49,.41-2.95,.36-5.3,.74-7.05,1.13-.51,.12-.89,.13-1.13,.02-.24-.11-.47-.35-.68-.75-.15-.3-.41-1.12-.79-2.44-.38-1.33-.61-2.24-.7-2.76-.33-1.87-.04-3.69,.86-5.47l.32-.68,2.58-.09c1.69-.12,2.68-.21,2.98-.27Zm5.02,2.67c-.99-.18-2.33-.23-4-.16-1.67,.08-2.95,.25-3.82,.52-.69,.21-1.12,.49-1.29,.84-.17,.35-.19,1-.07,1.97,.09,1.02,.21,1.73,.36,2.12,.15,.39,.36,.65,.63,.77,.42,.15,1.69,.19,3.8,.11,2.11-.08,3.4-.22,3.89-.43,.27-.12,.51-.29,.72-.5,.21-.21,.57-.65,1.08-1.31,.54-.69,.89-1.18,1.04-1.47,.15-.29,.2-.55,.14-.79-.12-.84-.95-1.4-2.49-1.67Z"/><path class="e" d="M299.87,15.56c.15-.12,.38-.15,.68-.09,.3,.06,.53,.18,.68,.36,.12,.15,.19,.3,.2,.45,.01,.15,0,.54-.02,1.18v1.36h1.13c.78-.03,1.21-.02,1.27,.04,.18,.18-.17,.66-1.04,1.45-.69,.57-1.16,1.04-1.4,1.4-.24,.36-.41,.83-.5,1.4-.21,.99-.46,2.71-.75,5.13-.29,2.43-.46,4.18-.52,5.27l-.09,1.22,.45,.18c.3,.12,.51,.18,.63,.18,.09,0,.41,.14,.95,.41,.78,.39,1.36,.93,1.72,1.63,.12,.21,.17,.47,.16,.79-.01,.32-.1,.55-.25,.7-.27,.27-.74,.15-1.4-.36-.66-.57-1.08-.93-1.27-1.06-.18-.14-.35-.2-.5-.2-.33,0-.59,.22-.77,.66-.18,.44-.48,1.56-.9,3.37-.78,3.37-1.48,5.29-2.08,5.74-.21,.15-.42,.19-.61,.11-.2-.08-.35-.26-.47-.56-.12-.27-.14-.64-.04-1.11,.09-.47,.33-1.33,.72-2.6,.81-2.41,1.22-3.9,1.22-4.47,0-.21-.08-.35-.25-.43-.17-.07-.58-.19-1.24-.34-1.27-.27-2.25-.72-2.94-1.36-.42-.33-.69-.67-.81-1.02-.12-.35-.18-.84-.18-1.47,0-.96,.39-3.25,1.17-6.87,.48-2.29,.72-3.48,.72-3.57s-.57-.12-1.72-.09l-1.76,.04-.32-.27c-.33-.33-.39-.69-.18-1.08,.15-.27,1.05-.65,2.71-1.13l1.4-.45,.41-.99c.42-.99,.75-1.52,.99-1.58,.27-.06,.55,.05,.84,.32,.29,.27,.43,.59,.43,.95,0,.45,.23,.71,.68,.77,.3,.06,.61,.04,.93-.05s.53-.23,.63-.41,.28-.71,.52-1.58c.27-1.11,.53-1.76,.77-1.94Zm-1.31,8.18c0-1.11-.03-1.72-.09-1.83-.06-.1-.38-.08-.95,.07-.88,.24-1.43,.62-1.67,1.13-.18,.33-.56,1.76-1.13,4.29-.57,2.56-.87,4.28-.9,5.15-.06,1.08,.01,1.76,.23,2.01,.21,.26,.8,.41,1.76,.47,.99,.09,1.55,0,1.67-.27,.15-.27,.37-1.84,.66-4.7,.29-2.86,.43-4.97,.43-6.33Zm17.67-12.38c1.24-.18,2.14-.18,2.71,0,.48,.15,.72,.51,.72,1.08,0,.21-.08,.5-.25,.86-.17,.36-.31,.56-.43,.59-.18,.06-.65,.11-1.4,.14-.81,.03-1.3,.08-1.45,.14-.15,.06-.33,.29-.54,.68-.42,.84-.47,1.63-.13,2.35,.09,.24,.28,.36,.56,.36s1.08-.11,2.37-.32c1.29-.24,2.26-.38,2.89-.41,.6-.06,.99,0,1.17,.18,.3,.21,.44,.54,.41,.97-.03,.44-.2,.73-.5,.88-.27,.12-1.18,.35-2.71,.68-.9,.21-1.5,.38-1.79,.5-.29,.12-.43,.29-.43,.5,.03,.39,.39,1.07,1.08,2.03,.69,.96,1.49,1.88,2.4,2.76,.81,.84,1.48,1.4,2.01,1.67,.53,.27,1.41,.54,2.64,.81,.96,.18,1.55,.33,1.76,.45,.21,.12,.32,.33,.32,.63,0,.21-.12,.41-.36,.59-.21,.18-.62,.27-1.22,.27s-1.19-.07-1.76-.23c-1.57-.39-2.98-1.09-4.23-2.1-1.25-1.01-2.66-2.55-4.23-4.63-.93-1.29-1.51-1.94-1.72-1.94-.15,0-.9,.14-2.24,.41-1.34,.27-2.31,.48-2.92,.63-.63,.15-1.05,.29-1.27,.41-.21,.12-.33,.3-.36,.54-.06,.27-.04,1.07,.04,2.4,.09,1.33,.17,2.02,.23,2.08,.06,.06,.57-.2,1.54-.77,1.02-.6,1.67-.96,1.94-1.08,.69-.27,1.1-.3,1.22-.09,.15,.21-.41,.95-1.67,2.21-1.33,1.3-2.34,2-3.03,2.12-.6,.12-1.08-.08-1.45-.59-.36-.48-.63-1.27-.81-2.35-.09-.54-.14-2-.14-4.36s.04-3.86,.14-4.5c.12-.84,.46-1.96,1.02-3.34,.56-1.39,.99-2.17,1.29-2.35,.27-.18,1.97-.38,5.11-.59,1.84-.12,2.98-.21,3.43-.27Zm-8.41,20.93c.72-.18,2.4-.15,5.02,.09,2.62,.24,4.62,.57,6.01,.99,1.72,.48,3.03,1.4,3.93,2.76,.57,.9,.86,2.05,.86,3.43,0,.9-.15,1.76-.45,2.58-.66,2.05-1.69,3.86-3.07,5.42-.48,.51-.93,.78-1.33,.81-.41,.03-.84-.17-1.29-.59l-.54-.5-3.84,.32c-2.56,.24-4.01,.36-4.34,.36-.69,0-1.24-.17-1.63-.5l-.32-.27v-2.08c.06-1.96-.11-3.42-.5-4.38l-.27-.72,.32-1.08c.27-.81,.44-1.43,.5-1.85,.06-.36,.08-.65,.04-.86-.03-.21-.18-.81-.45-1.81-.09-.33-.08-.63,.05-.9,.24-.63,.68-1.04,1.31-1.22Zm5.2-17.99s-.74-.05-2.12-.07c-1.39-.01-2.14,0-2.26,.02-.33,.09-.42,.24-.27,.45,.09,.15,0,.86-.27,2.12-.24,1.06-.38,1.73-.41,2.01-.03,.29,.01,.46,.14,.52,.09,.03,.89-.1,2.4-.41,1.51-.3,2.4-.5,2.67-.59l.27-.09-.04-1.99c-.03-1.29-.06-1.96-.09-1.99Zm.14,20.43c-1.27-.06-2.11-.09-2.53-.09-.45,0-.75,.05-.88,.16-.14,.11-.26,.38-.38,.84-.06,.27-.09,.77-.09,1.49s.03,1.13,.09,1.22c.12,.21,1.78,.21,4.97,0,.99-.06,2.09-.09,3.28-.09s1.97,.03,2.33,.09c.51,.09,.81,.44,.9,1.04,.06,.27,0,.5-.18,.68-.15,.15-.51,.27-1.08,.36s-1.78,.21-3.62,.36c-4.52,.42-6.78,.65-6.78,.68-.03,.03-.06,.68-.09,1.94l-.09,1.9,1.72-.09c4.64-.21,7.38-.39,8.23-.54,.45-.06,.75-.17,.9-.32,.51-.51,.93-1.48,1.24-2.89,.32-1.42,.35-2.53,.11-3.34-.3-1.02-1.09-1.8-2.37-2.33-1.28-.53-3.17-.88-5.67-1.06Z"/><path class="e" d="M349.63,12.98c.72-.18,1.24-.29,1.54-.32,.3-.03,.86-.03,1.67,0,2.89,.09,5,.23,6.33,.41,1.05,.15,1.72,.38,1.99,.68,.45,.45,.55,1,.29,1.65-.26,.65-.75,1.09-1.47,1.33-.39,.12-.71,.27-.95,.45-.54,.33-1.19,.95-1.94,1.85-.75,.9-1.28,1.67-1.58,2.3-.33,.72-.39,1.36-.18,1.9,.24,.54,.59,2.38,1.04,5.51,.36,2.56,.6,4.2,.72,4.93,.69,4.31,.83,7.52,.41,9.63-.24,1.11-.66,1.99-1.27,2.62-.69,.75-1.52,1.3-2.49,1.65-.96,.35-1.87,.43-2.71,.25-.45-.09-.81-.21-1.08-.36-.27-.15-.74-.48-1.4-.99-1.02-.87-1.76-1.78-2.21-2.71-.24-.51-.35-.99-.32-1.45,.03-.33,.14-.7,.32-1.11s.35-.66,.5-.75c.15-.09,.29-.06,.43,.09,.14,.15,.2,.35,.2,.59,0,.54,.47,1.36,1.4,2.44,1.14,1.33,2.21,1.99,3.21,1.99,.24,0,.66-.11,1.24-.34,.59-.23,1.03-.46,1.33-.7,.33-.24,.63-.72,.9-1.42,.27-.71,.47-1.48,.59-2.33,.06-.51-.34-3.19-1.2-8.02-.86-4.84-1.48-7.9-1.88-9.2-.18-.66-.27-1.05-.27-1.18s.2-.58,.61-1.38c.41-.8,.78-1.41,1.11-1.83,.33-.48,.68-.9,1.04-1.27,.87-.96,1.31-1.61,1.31-1.94,0-.21-.29-.35-.88-.41-.59-.06-2.03-.09-4.32-.09-2.92,0-4.44-.05-4.56-.14-.12-.09-.2-.3-.25-.63-.04-.33-.02-.57,.07-.72,.12-.27,1.02-.6,2.71-.99Z"/></g><g><path class="f" d="M399.28,42.44l6.3,18.95c.2,.59,2.11,.04,1.92-.52l-6.3-18.95c-.2-.59-2.11-.04-1.92,.52h0Z"/><path class="f" d="M407.91,42.04c1.6,4.74,3.45,9.39,5.53,13.93,.34,.75,2.24,.17,1.92-.52-2.08-4.55-3.93-9.2-5.53-13.93-.26-.77-2.18-.23-1.92,.52h0Z"/><path class="f" d="M417.08,43.02l6.13,16.27c.31,.83,2.23,.29,1.92-.52l-6.13-16.27c-.31-.83-2.23-.29-1.92,.52h0Z"/></g><g><path class="f" d="M.04,24.34c3.38,13.04,4.91,26.51,4.46,39.97-.08,2.26,5.01,1.31,5.08-.55,.46-13.73-1.03-27.47-4.49-40.77-.5-1.94-5.56-.61-5.06,1.35H.04Z"/><path class="f" d="M4.74,25.2l6.56-2.35c.4-.14,1.07-.29,1.36-.48-.3,.19-1.24-.01-1.23-.13,0,.02,.14,.27,.16,.32,.32,.9,.31,1.96,.42,2.9l.74,6.87,.38,3.53,.2,1.86c.04,.37,.18,.87-.01,1.16l.76-.8c.94-.26,1.17-.36,.68-.29l-.55,.06-.92,.09-2.03,.21c-1.04,.11-2.65,.71-2.82,1.91s1.41,1.52,2.27,1.43c1.79-.18,3.92-.12,5.6-.83,.92-.39,1.81-1.04,2.1-2.04,.21-.73,.06-1.5-.02-2.25l-1.15-10.59c-.16-1.47-.12-3.17-.6-4.58-.56-1.67-2.04-2.31-3.74-2.14s-3.62,1.12-5.3,1.72l-5.01,1.79c-.85,.3-1.98,1.46-1.26,2.37,.78,1,2.43,.59,3.4,.25h0Z"/><path class="f" d="M12.09,22.2l15.56-6.03,7.66-2.97c2.61-1.01,5.2-2.18,7.87-3.02l-2.51,.45,.44,.02-.75-.18c.84,.5,.22,2.29,.11,3.09-.19,1.37-.36,2.74-.5,4.12-.3,2.83-.52,5.67-.64,8.52-.25,5.61-.14,11.23,.3,16.83l4.6-1.67c-10.34-3.5-21.48-1.94-32.03-.4-.73,.11-2.72,.53-2.96,1.4s1.69,.57,2.03,.52c9.56-1.39,19.45-2.69,28.81,.47,.88,.3,4.71-.34,4.6-1.67-.72-9.17-.53-18.4,.59-27.53,.14-1.13,.31-2.26,.46-3.39,.09-.71,.16-1.48-.49-1.94-.89-.63-2.59-.19-3.49,.08-1.13,.34-2.23,.81-3.33,1.23l-13.23,5.13-14.86,5.76c-.46,.18-2.08,.76-1.5,1.46,.52,.64,2.72-.06,3.26-.27h0Z"/><path class="f" d="M58.22,10.13c6.1-2.75,12.42-4.91,18.92-6.51,1.01-.25,2.38-1.23,2.06-2.44s-2-1.33-3-1.08c-6.94,1.7-13.71,4.06-20.23,6.99-.94,.42-1.92,1.63-1.19,2.64s2.43,.85,3.44,.39h0Z"/><path class="f" d="M58.85,22.57c4.92-.32,9.81,.5,14.48,2.46,1.17,.49,2.8,.04,3.57-.96s.42-2.17-.71-2.64c-5.34-2.25-11.18-3.2-16.96-2.83-1.16,.07-2.65,.84-2.76,2.14s1.3,1.89,2.38,1.82h0Z"/><path class="f" d="M57.17,35.55c5.23,3.25,9.63,7.95,12.54,13.37,.51,.96,1.96,.82,2.86,.56,.6-.18,1.22-.42,1.69-.84,.24-.22,.7-.71,.51-1.07-3.2-5.95-7.83-10.87-13.57-14.44-.42-.26-1.22-.22-1.66-.16-.63,.08-1.38,.3-1.91,.65-.75,.49-1.45,1.32-.45,1.94h0Z"/></g></g></g></g></g></svg>