<?xml version="1.0" encoding="UTF-8"?><svg xmlns="http://www.w3.org/2000/svg" viewBox="0 0 425.15 65.58"><defs><style>.d{stroke:#231815;stroke-miterlimit:10;stroke-width:.5px;}.d,.e{fill:#231815;}.f{fill:#55b9b9;opacity:.44;}</style></defs><g id="a"/><g id="b"><g id="c"><path class="f" d="M372.55,56.77c-.9-2.01-2.17-3.63-3.81-4.86-4.47-4.01-9.71-6.95-14.97-8.88-5.33-1.96-10.78-3.39-16.37-3.28-20.64,.4-41.28-.09-61.9-.96-5.18-.22-10.36-.47-15.55-.73-20.92-1.07-41.84-2.32-62.76-3.31-20.46-.96-40.93-1.64-61.4-1.51-11.56,.07-23.12,.41-34.68,1.08-1.91-.15-3.69,.28-5.35,1.3-1.33,.34-2.27,1.32-2.83,2.95-.28,1.73,.05,3.21,.99,4.43,.9,2.01,2.17,3.63,3.81,4.86,4.47,4.01,9.71,6.95,14.97,8.88,5.27,1.93,10.84,3.6,16.37,3.28,27.01-1.58,54.06-1.27,81.08-.22,6.71,.26,13.42,.57,20.13,.9,16.6,.85,33.2,1.83,49.8,2.67,18.65,.95,37.31,1.8,55.98,2.1,9.77,.16,19.54,.16,29.31-.02,1.91,.15,3.69-.28,5.35-1.3,1.33-.34,2.27-1.32,2.83-2.95,.28-1.73-.05-3.21-.99-4.43Z"/><g><path class="e" d="M399.26,42.21l6.3,18.95c.26,.79,2.18,.26,1.92-.52l-6.3-18.95c-.26-.79-2.18-.26-1.92,.52h0Z"/><path class="e" d="M407.89,41.8c1.6,4.74,3.45,9.39,5.53,13.93,.24,.52,2.11-.11,1.92-.52-2.08-4.55-3.93-9.2-5.53-13.93-.17-.51-2.08,.05-1.92,.52h0Z"/><path class="e" d="M417.06,42.79l6.13,16.27c.31,.83,2.23,.29,1.92-.52l-6.13-16.27c-.31-.83-2.23-.29-1.92,.52h0Z"/></g><g><path class="e" d="M.02,24.11c3.42,13.17,4.93,26.77,4.48,40.37-.03,1.03,5,.3,5.06-1.35,.45-13.6-1.06-27.2-4.48-40.37-.35-1.35-5.41-.03-5.06,1.35H.02Z"/><path class="e" d="M4.13,25.44l7.42-2.66c.25-.09,.65-.15,.86-.31,.41-.1,.35-.15-.18-.13-.32,.04-.59-.05-.81-.28,.11-.04,.26,.69,.29,.83,.23,1.25,.29,2.55,.43,3.81l.85,7.8,.22,2.04c.04,.36-.03,1.45,.17,1.72-.2-.27,2.61-1.1,.92-.93l-.92,.09-2.21,.23c-1.13,.12-2.65,.79-2.77,2.09s1.32,1.84,2.36,1.73c1.78-.18,3.94-.1,5.6-.83,.9-.4,1.64-1.03,1.99-1.97,.31-.82,.12-1.72,.02-2.56l-1.13-10.4c-.31-2.89-.13-7.42-4.28-7.16-1.67,.11-3.4,1-4.96,1.56l-4.83,1.73c-1,.36-2.39,1.18-2.05,2.47,.31,1.17,2.02,1.47,3.01,1.12h0Z"/><path class="e" d="M12.26,22.69l15.32-5.94,7.43-2.88,3.95-1.53,1.86-.72,.93-.36c.5-.2,1.17-.16,.06-.21l-1.06-.31c.1,.06-.39,2.64-.45,3.12-.18,1.37-.34,2.75-.47,4.12-.27,2.75-.46,5.51-.57,8.28-.21,5.51-.08,11.04,.35,16.54l4.02-2.25c-10.24-3.46-21.19-2.06-31.64-.54-1.03,.15-2.66,.68-2.82,1.92s1.39,1.57,2.28,1.44c9.66-1.4,19.73-2.86,29.2,.34,1.47,.5,4.16-.43,4.02-2.25-.72-9.19-.49-18.44,.67-27.58,.2-1.56,1.17-4.33-.22-5.56-1.88-1.67-4.98,.12-6.9,.87l-13.23,5.13-14.86,5.76c-.88,.34-1.93,1.43-1.25,2.38,.72,1.01,2.49,.61,3.4,.25h0Z"/><path class="e" d="M58.14,9.64c6.1-2.75,12.41-4.92,18.91-6.52,.87-.21,2.43-1.05,2.13-2.17s-2.09-1.02-2.93-.82c-6.94,1.7-13.72,4.05-20.23,6.98-.78,.35-2.03,1.37-1.27,2.31s2.48,.62,3.39,.21h0Z"/><path class="e" d="M58.7,21.86c1.07-.07,2.16-.08,3.38-.02s2.39,.18,3.57,.38c2.43,.42,4.82,1.09,7.09,2.05,1.15,.48,2.56,.24,3.59-.43,.65-.42,1.56-1.64,.4-2.13-5.53-2.32-11.42-3.26-17.4-2.88-.97,.06-2.65,.69-2.85,1.8-.22,1.19,1.48,1.27,2.22,1.22h0Z"/><path class="e" d="M56.8,35.01c5.4,3.35,9.89,8.07,12.9,13.67,.76,1.42,5.6-.34,5.06-1.35-3.1-5.77-7.65-10.68-13.22-14.13-.92-.57-2.36-.22-3.29,.16-.3,.12-2.32,1.12-1.45,1.66h0Z"/></g><g><path class="d" d="M163.22,23.09c.56-.24,.92-.27,1.08-.1,.16,.17,.05,.61-.32,1.3-.27,.53-.51,1.13-.72,1.8-.24,.61-.56,1.33-.96,2.16-.56,1.15-.85,1.85-.88,2.12-.03,.27,.19,.51,.64,.72,.4,.24,1.11,.79,2.12,1.64,1.76,1.47,2.69,2.2,2.8,2.2,.29,.03,1.37-1.59,3.24-4.84,.45-.77,.91-1.35,1.36-1.74,.45-.39,1.01-.69,1.68-.9,.51-.13,.85-.04,1.04,.28,.11,.19,.09,.4-.04,.64-.13,.24-.44,.6-.92,1.08-.61,.56-1.2,1.25-1.76,2.08-1.57,2.4-2.48,3.93-2.72,4.6-.08,.24-.08,.41,0,.52,.08,.11,.4,.4,.96,.88,.51,.45,1.11,1.01,1.8,1.68,1.63,1.55,2.87,2.57,3.74,3.08,.87,.51,2.45,1.13,4.74,1.88,1.95,.64,3.17,1.15,3.68,1.52,.51,.35,.65,.73,.44,1.16-.4,.85-2.8,.49-7.2-1.08-1.2-.43-2.21-.91-3.02-1.46-.81-.55-1.83-1.39-3.06-2.54-1.79-1.6-2.99-2.6-3.6-3l-.32-.24-1,1.32c-.69,.85-1.49,1.79-2.4,2.8-.77,.96-1.41,1.72-1.92,2.28-.64,.83-1.13,1.24-1.48,1.24-.11,0-.25-.07-.44-.2-.35-.29-.35-.75,0-1.36,.11-.24,.59-.87,1.44-1.88,1.73-2.03,3.07-3.71,4-5.04,.29-.35,.4-.59,.32-.72-.08-.13-.53-.52-1.36-1.16-1.71-1.39-2.87-2.59-3.48-3.6l-.36-.52-.6,.36c-1.2,.61-1.93,.63-2.2,.04-.16-.29-.2-.53-.12-.72,.08-.19,.36-.49,.84-.92,.64-.61,1.16-1.21,1.56-1.78,.4-.57,.83-1.35,1.28-2.34,.56-1.28,.96-2.09,1.2-2.44s.55-.61,.92-.8Zm1.2-10.2c.27-.13,.59-.15,.96-.04,.37,.11,.96,.36,1.76,.76,1.09,.53,1.76,.87,2,1,.29,.16,.55,.29,.76,.4,.19,.11,.35,.32,.5,.64,.15,.32,.22,.65,.22,1,.03,.35,.08,.53,.16,.56s.89-.03,2.44-.16c3.17-.29,5.04-.32,5.6-.08,.37,.16,.59,.44,.64,.84,.05,.4-.07,.76-.36,1.08l-.28,.24h-2.04c-1.52,.03-3.4,.16-5.64,.4-1.23,.13-2.25,.24-3.08,.32-1.04,.08-2.38,.13-4.02,.16-1.64,.03-2.71,.01-3.22-.04-.61-.05-1.03-.17-1.24-.36-.35-.35-.43-.69-.24-1.04,.16-.29,.47-.49,.94-.58,.47-.09,1.67-.17,3.62-.22,2.99-.13,4.63-.28,4.92-.44,.21-.11,.05-.28-.48-.52-.19-.08-.43-.19-.72-.32-2.53-.99-3.8-1.87-3.8-2.64,0-.19,.06-.37,.18-.56s.26-.32,.42-.4Zm7.72,9.48c.24-.27,.47-.36,.7-.28,.23,.08,.59,.39,1.1,.92,1.2,1.31,3.19,2.88,5.96,4.72,.88,.59,1.43,.99,1.64,1.22,.21,.23,.28,.49,.2,.78-.03,.21-.13,.36-.3,.44-.17,.08-.53,.13-1.06,.16l-.96,.04-.64-.56c-.37-.37-1.07-.88-2.08-1.52-1.55-1.04-2.81-2.23-3.8-3.56-.67-.88-1-1.49-1-1.84,0-.13,.08-.31,.24-.52Z"/><path class="d" d="M211.54,22.81c.29-.03,1.14-.03,2.54,0,1.4,.03,2.37,.08,2.9,.16,.99,.08,2.04,.32,3.16,.72l1,.36,.08,6.92c.08,9.12,.17,13.73,.28,13.84,.03,.03,.4,.07,1.12,.12,.61,.05,1.01,.13,1.2,.24,.19,.11,.28,.31,.28,.6,0,.45-.24,.75-.72,.88-.24,.11-1.71,.16-4.42,.16s-4.37-.05-4.98-.16c-1.81-.27-4.38-.75-7.7-1.44-3.32-.69-5.94-1.29-7.86-1.8-1.23-.32-2.13-.73-2.72-1.22s-.73-.98-.44-1.46c.16-.29,.65-.59,1.48-.88,.4-.16,.69-.33,.88-.52,.13-.13,.21-.27,.22-.4,.01-.13,.02-.49,.02-1.08,0-1.49-.23-2.89-.68-4.2-.27-.75-.4-1.23-.4-1.44,0-.4,.29-.8,.88-1.2,.29-.21,.57-.49,.84-.84,.45-.56,.77-.72,.96-.48,.19,.29,.13,.72-.16,1.28-.16,.32-.23,.67-.2,1.04,.03,.37,.17,1.08,.44,2.12,.24,.96,.36,1.75,.36,2.36,0,1.47-.25,2.59-.76,3.36-.21,.27-.32,.47-.32,.6s.09,.23,.28,.28c.27,.11,1,.33,2.2,.68,1.2,.35,2.05,.57,2.56,.68,.69,.19,1.09,.25,1.2,.18s.11-.34,0-.82c-.21-.83-.37-2.57-.48-5.24-.08-1.39-.1-2.39-.06-3.02,.04-.63,.17-1.77,.38-3.42,.4-3.33,.77-5.35,1.12-6.04,.11-.16,.25-.26,.42-.3,.17-.04,.65-.1,1.42-.18,.91-.08,1.67-.16,2.28-.24,.77-.11,1.24-.17,1.4-.2Zm-12.64-.28c.35-.13,.83-.12,1.44,.04,.4,.11,.81,.45,1.22,1.02,.41,.57,.62,1.1,.62,1.58,0,.19-.05,.38-.16,.58-.11,.2-.23,.34-.36,.42-.13,.05-.31,0-.52-.14-.21-.15-.68-.57-1.4-1.26-.56-.56-.89-.91-1-1.06s-.16-.31-.16-.5c0-.37,.11-.6,.32-.68Zm16.6,2.36c-.8-.11-1.29-.16-1.48-.16h-.32l-.08,1.04c-.03,.64-.08,1.12-.16,1.44-.05,.29-.04,.47,.04,.54s.4,.13,.96,.18c1.31,.19,2.22,.4,2.74,.64,.52,.24,.75,.56,.7,.96-.05,.24-.22,.4-.5,.48-.28,.08-.95,.12-2.02,.12l-1.96,.04-.08,1.28c-.03,.8-.04,1.39-.04,1.76v.52l2,.04c.96,.03,1.57,.05,1.82,.08,.25,.03,.5,.09,.74,.2,.53,.27,.71,.63,.52,1.08-.11,.24-.33,.41-.68,.5s-1.05,.17-2.12,.22c-.96,.05-1.59,.11-1.9,.16s-.49,.16-.54,.32c-.05,.13-.11,1.08-.16,2.84-.03,1.31-.07,2.13-.12,2.48-.05,.35-.17,.63-.36,.84-.11,.11-.27,.16-.48,.16s-.37-.07-.48-.2c-.11-.11-.17-.29-.18-.56s-.02-1-.02-2.2c-.03-1.71-.07-2.65-.12-2.84l-.08-.36-2-.08c-1.36-.03-2.17-.11-2.44-.24-.29-.16-.45-.23-.48-.2-.08,.11,.01,1.68,.28,4.72,.05,.75,.17,1.25,.36,1.52,.32,.43,.89,.75,1.7,.98s2.39,.51,4.74,.86c1.73,.24,3.07,.4,4,.48,.13,.03,.73,.09,1.8,.2,.32,.03,.5,0,.54-.06,.04-.07,0-.23-.14-.5-.29-.56-.31-.92-.04-1.08,.19-.08,.3-.31,.34-.68,.04-.37,.03-1.12-.02-2.24-.11-1.89-.33-4.65-.66-8.28-.33-3.63-.57-5.64-.7-6.04-.11-.4-1.08-.72-2.92-.96Zm-5.84,5.6c-1.07-.03-1.8-.05-2.2-.08-.29-.05-.51,0-.66,.18-.15,.17-.26,.67-.34,1.5-.05,.88-.12,1.48-.2,1.8s-.08,.51,0,.58,.55,.02,1.4-.14c.8-.19,1.64-.29,2.52-.32l1.2-.08v-3.36l-1.72-.08Zm2.28-5.56c-.08-.05-.19-.08-.32-.08-.19,0-.74,.13-1.66,.38-.92,.25-1.5,.43-1.74,.54-.96,.45-1.36,1.09-1.2,1.92,.05,.27,.21,.43,.48,.5,.27,.07,.87,.1,1.8,.1,.77,0,1.24,0,1.4-.02,.16-.01,.31-.09,.44-.22,.16-.19,.29-.52,.4-1,.08-.48,.19-.95,.32-1.4,.16-.43,.19-.67,.08-.72Zm-2.72-11.88c.45-.21,1.49-.07,3.12,.42,1.63,.49,2.83,1.02,3.6,1.58,.24,.16,.43,.37,.56,.62,.13,.25,.17,.46,.12,.62-.13,.48-.84,.96-2.12,1.44-.53,.21-.85,.39-.96,.52-.24,.27-.19,.64,.16,1.12,.13,.19,.21,.45,.24,.8,.03,.21,.03,.35,0,.42s-.09,.14-.2,.22c-.19,.11-.8,.16-1.84,.16-1.52,0-2.65-.17-3.4-.52-.51-.27-.87-.61-1.08-1.04-.21-.43-.2-.79,.04-1.08,.11-.11,.25-.17,.42-.2,.17-.03,.67-.05,1.5-.08,.88-.03,1.41-.05,1.6-.08s.37-.12,.56-.28c.19-.13,.4-.31,.64-.54,.24-.23,.43-.43,.56-.6,.13-.17,.19-.27,.16-.3-.03-.05-.32-.16-.88-.32-.96-.24-1.75-.51-2.38-.8-.63-.29-.97-.57-1.02-.84-.03-.16,.03-.39,.18-.7,.15-.31,.29-.49,.42-.54Z"/><path class="d" d="M245.9,13.37c.51-.21,1.48,.19,2.92,1.2,1.84,1.33,2.81,2.48,2.92,3.44l.08,.56h.52c.4,0,1.25-.05,2.56-.16,2.37-.19,3.93-.17,4.68,.04,.29,.08,.51,.19,.64,.34,.13,.15,.21,.37,.24,.66,.03,.32-.03,.51-.16,.56-.27,.16-1.67,.32-4.2,.48-2.19,.13-3.75,.27-4.68,.42-.93,.15-1.65,.35-2.16,.62-.37,.19-.65,.48-.82,.88-.17,.4-.46,1.36-.86,2.88-.27,1.07-.39,1.67-.36,1.82,.03,.15,.15,.25,.38,.32s.79,.18,1.7,.34c3.25,.51,5.67,1.15,7.24,1.92,1.09,.53,1.75,1.15,1.96,1.84,.29,1.12,.34,2.35,.14,3.7-.2,1.35-.63,2.65-1.3,3.9-.85,1.6-2.01,3.18-3.48,4.74-1.47,1.56-2.64,2.46-3.52,2.7-.56,.16-.97,.11-1.24-.16-.13-.13-.11-.31,.06-.52,.17-.21,.58-.61,1.22-1.2,1.76-1.55,3.04-2.88,3.84-4,.75-1.04,1.35-2.27,1.8-3.68,.29-.85,.47-1.7,.52-2.54,.05-.84-.01-1.45-.2-1.82-.45-.85-1.8-1.57-4.04-2.16-1.92-.48-3.64-.72-5.16-.72-.4,0-.69,.17-.88,.5-.19,.33-.57,1.37-1.16,3.1-1.71,5.04-3.03,8.2-3.96,9.48-.48,.64-.93,.89-1.36,.76-.24-.11-.32-.34-.24-.7,.08-.36,.37-1.19,.88-2.5,1.57-3.87,3.04-8.27,4.4-13.2,.75-2.72,1.19-4.53,1.32-5.44l.04-.4h-3.56c-2.37,.03-3.68-.03-3.92-.16-.29-.16-.45-.42-.46-.78s.13-.63,.42-.82c.21-.13,2.48-.29,6.8-.48,3.01-.11,4.52-.31,4.52-.6,0-.16-.61-.71-1.84-1.64-1.57-1.2-2.41-2.05-2.52-2.56-.11-.53-.01-.85,.28-.96Z"/><path class="d" d="M281.26,30.65c.96-.08,1.72-.07,2.28,.04,.29,.05,.48,.1,.56,.14,.08,.04,.16,.14,.24,.3,.32,.59,.31,1.07-.04,1.44-.21,.24-.99,.51-2.32,.8-.27,.05-.44,.11-.52,.16-.08,.05-.15,.16-.2,.32-.11,.27-.14,1.3-.1,3.1,.04,1.8,.1,2.75,.18,2.86,.05,.05,.63-.03,1.72-.24,1.25-.27,2-.41,2.24-.44s.41,0,.52,.08c.27,.27-.03,.69-.88,1.28-1.31,.85-2.77,1.55-4.4,2.08-2.59,.88-4.19,1.16-4.8,.84-.35-.19-.58-.43-.7-.72-.12-.29-.13-.59-.02-.88,.08-.16,.22-.29,.42-.4,.2-.11,.74-.31,1.62-.6,1.01-.4,1.6-.67,1.76-.8,.11-.11,.17-.23,.18-.38,.01-.15,0-.61-.02-1.38-.03-1.33-.2-2.67-.52-4-.11-.48-.23-.72-.36-.72-.37-.08-.69-.13-.96-.16-.85-.13-1.43-.43-1.72-.88-.11-.16-.16-.27-.16-.34s.05-.19,.16-.38c.16-.29,.43-.49,.82-.6,.39-.11,1.22-.21,2.5-.32,.32-.03,.79-.06,1.42-.1,.63-.04,.99-.07,1.1-.1Zm5.36-14.64c.19-.21,.43-.16,.72,.16,.43,.43,.99,1.75,1.68,3.96l.44,1.28,3.4-.04c4.08-.05,6.41,.04,7,.28,.45,.16,.68,.49,.68,1,0,.32-.04,.51-.12,.56-.11,.08-1.6,.21-4.48,.4-2.67,.16-4.23,.27-4.68,.32-.45,.05-.69,.16-.72,.32-.05,.48,.33,1.86,1.14,4.14s1.65,4.29,2.5,6.02c.69,1.44,1.39,2.62,2.08,3.54s1.72,2.03,3.08,3.34c1.76,1.73,3.04,2.77,3.84,3.12,.51,.24,.95,.28,1.32,.12,.16-.08,.29-.05,.4,.08,.21,.29,.21,.77,0,1.44-.05,.24-.14,.37-.26,.4s-.41-.03-.86-.16c-1.12-.29-2.62-1.19-4.5-2.7-1.88-1.51-3.41-3.02-4.58-4.54-1.04-1.33-1.9-2.75-2.58-4.24-.68-1.49-1.86-4.51-3.54-9.04l-.64-1.76h-.32c-.19,0-.8,.05-1.84,.16-2.32,.24-4.37,.31-6.16,.2-1.04-.08-1.76-.23-2.16-.44-.32-.16-.64-.38-.96-.66s-.48-.47-.48-.58,.08-.27,.24-.48c.11-.19,.2-.29,.28-.32s.31-.04,.68-.04c.48,0,1.87,.04,4.16,.12,2.05,.05,3.51,.05,4.36-.02,.85-.07,1.33-.22,1.44-.46,.03-.11-.03-.45-.16-1.04-.11-.43-.27-1.17-.48-2.24-.16-.72-.23-1.21-.22-1.48,.01-.27,.11-.51,.3-.72Zm7.36-2.44c.19-.13,.36-.2,.52-.2,.35,0,.81,.11,1.38,.32,.57,.21,1.03,.45,1.38,.72,.29,.19,.93,.55,1.92,1.08,1.07,.59,1.68,.96,1.84,1.12,.24,.29,.27,.61,.1,.94-.17,.33-.46,.5-.86,.5-.72,0-1.79-.29-3.2-.86-1.41-.57-2.39-1.11-2.92-1.62l-.56-.52,.08-.6c.03-.43,.13-.72,.32-.88Z"/></g></g></g></svg>